<?xml version="1.0" encoding="utf-8"?>
<!-- Generator: Adobe Illustrator 23.0.4, SVG Export Plug-In . SVG Version: 6.00 Build 0)  -->
<svg version="1.1" id="Layer_1" xmlns="http://www.w3.org/2000/svg" xmlns:xlink="http://www.w3.org/1999/xlink" x="0px" y="0px"
	 viewBox="0 0 100 100" style="enable-background:new 0 0 100 100;" xml:space="preserve">
<style type="text/css">
	.st0{fill:#ED332D;}
	.st1{fill:#FFFFFF;}
</style>
<polygon class="st0" points="92.03,53.66 99.13,50.32 92.03,46.99 98.52,42.6 91,40.41 96.72,35.06 88.95,34.08 93.75,27.89 
	85.92,28.15 89.7,21.28 82,22.77 84.66,15.39 77.29,18.05 78.77,10.36 71.9,14.13 72.16,6.3 65.97,11.11 65,3.33 59.64,9.05 
	57.45,1.53 53.06,8.02 49.72,0.93 46.39,8.02 42,1.53 39.81,9.06 34.46,3.33 33.48,11.11 27.29,6.3 27.55,14.13 20.68,10.36 
	22.17,18.06 14.79,15.4 17.45,22.77 9.76,21.29 13.53,28.15 5.7,27.89 10.51,34.09 2.73,35.06 8.45,40.41 0.92,42.6 7.42,46.99 
	0.32,50.33 7.42,53.66 0.92,58.06 8.45,60.24 2.73,65.6 10.5,66.57 5.7,72.76 13.53,72.5 9.75,79.37 17.45,77.89 14.79,85.26 
	22.16,82.6 20.68,90.3 27.55,86.52 27.29,94.35 33.48,89.55 34.46,97.33 39.81,91.61 42,99.13 46.39,92.64 49.72,99.73 53.06,92.64 
	57.45,99.13 59.64,91.6 65,97.33 65.97,89.55 72.16,94.36 71.9,86.53 78.77,90.3 77.29,82.6 84.66,85.26 82,77.89 89.7,79.37 
	85.92,72.5 93.75,72.76 88.95,66.57 96.72,65.6 91,60.24 98.52,58.05 "/>
<g>
	<path class="st1" d="M53.79,66.78L53.79,66.78c-0.03,0.04-0.07,0.09-0.11,0.13C53.72,66.87,53.75,66.82,53.79,66.78z"/>
	<path class="st1" d="M53.54,67.07c-0.53,0.63-1.07,1.26-1.61,1.9C52.48,68.33,53.01,67.7,53.54,67.07z"/>
	<path class="st1" d="M42.65,62.57c0.01-0.01,0.02-0.02,0.03-0.03c1.58-1.57,3.16-3.14,4.73-4.71
		C45.83,59.4,44.24,60.98,42.65,62.57z"/>
	<path class="st1" d="M70.16,61.74c0.08-0.09,0.16-0.18,0.24-0.26c-0.67,0.73-1.35,1.45-2.02,2.18
		C68.98,63.02,69.57,62.38,70.16,61.74z"/>
	<path class="st1" d="M37.61,57.56c-0.11,0.13-0.22,0.27-0.34,0.4C37.39,57.83,37.5,57.69,37.61,57.56
		C37.61,57.56,37.61,57.56,37.61,57.56z"/>
	<path class="st1" d="M50.44,80.73c0.05,0.04,0.1,0.09,0.16,0.13c0.98,0.84,1.97,1.68,2.95,2.52c-1.22-1.04-2.44-2.08-3.66-3.12
		C50.07,80.41,50.25,80.57,50.44,80.73z"/>
	<path class="st1" d="M55.76,64.44c-0.14-0.12-0.28-0.24-0.42-0.36c0,0,0,0,0,0C55.48,64.2,55.62,64.32,55.76,64.44z"/>
	<path class="st1" d="M78.75,52.37c0,0,0.01-0.01,0.01-0.01c0.07-0.07,0.13-0.15,0.2-0.22c-0.21,0.24-0.43,0.47-0.64,0.71
		C78.46,52.68,78.61,52.53,78.75,52.37z"/>
	<path class="st1" d="M48.24,67.42c0.03,0.03,0.07,0.06,0.1,0.09c0,0,0.01,0.01,0.01,0.01c-0.14-0.12-0.28-0.24-0.42-0.36
		C48.04,67.24,48.14,67.33,48.24,67.42z"/>
	<path class="st1" d="M81.04,49.48c0.01-0.02,0.02-0.03,0.03-0.05c-0.02,0.03-0.04,0.05-0.05,0.08
		C81.03,49.5,81.04,49.49,81.04,49.48z"/>
	<polygon class="st1" points="47.08,66.42 47.08,66.42 47.08,66.42 	"/>
	<path class="st1" d="M47.08,66.42L47.08,66.42c-0.21-0.18-0.43-0.37-0.64-0.55C46.65,66.05,46.86,66.23,47.08,66.42z"/>
	<polygon class="st1" points="62.72,41.75 62.72,41.75 62.72,41.75 	"/>
	<path class="st1" d="M34.26,54.84c-0.6-0.45-1.22-0.91-1.85-1.37C33.04,53.93,33.65,54.39,34.26,54.84z"/>
	<path class="st1" d="M46.06,43.29c0.6-0.59,1.21-1.18,1.81-1.77C47.27,42.11,46.66,42.7,46.06,43.29L46.06,43.29z"/>
	<path class="st1" d="M44.55,25.12c-0.32,0.37-0.64,0.74-0.95,1.11c0.29-0.33,0.57-0.67,0.86-1C44.49,25.2,44.52,25.16,44.55,25.12z
		"/>
	<path class="st1" d="M34.66,36.07c0.27-0.28,0.53-0.56,0.8-0.84c-0.39,0.41-0.79,0.83-1.19,1.24
		C34.4,36.34,34.52,36.21,34.66,36.07C34.65,36.08,34.65,36.07,34.66,36.07z"/>
	<path class="st1" d="M50.23,24.3c0.17,0.14,0.34,0.28,0.52,0.42c-1.19-0.98-2.38-1.95-3.57-2.93c0.15,0.12,0.29,0.24,0.44,0.36
		C48.49,22.86,49.36,23.58,50.23,24.3z"/>
	<path class="st1" d="M41.07,61.22L41.07,61.22L41.07,61.22c-0.07-0.06-0.15-0.12-0.22-0.19C40.92,61.09,41,61.16,41.07,61.22z"/>
	<path class="st1" d="M60,45.3c-0.35,0.35-0.7,0.7-1.05,1.04C59.3,45.99,59.65,45.64,60,45.3z"/>
	<path class="st1" d="M35.77,68.21c0.25,0.21,0.49,0.42,0.74,0.63c-1.29-1.1-2.58-2.2-3.86-3.3C33.68,66.43,34.72,67.32,35.77,68.21
		z"/>
	<path class="st1" d="M62.92,34.71c2.13,1.75,4.25,3.49,6.38,5.24c-3.38-2.77-6.76-5.54-10.14-8.32c1.23,1.01,2.47,2.03,3.7,3.04
		L62.92,34.71z"/>
	<path class="st1" d="M21.06,50.48c-0.05,0.06-0.09,0.13-0.14,0.19l0,0c0.02-0.03,0.05-0.07,0.07-0.1
		C21.02,50.54,21.04,50.51,21.06,50.48z"/>
	<path class="st1" d="M66.7,53.39c0.11-0.11,0.21-0.23,0.32-0.34c-0.26,0.28-0.53,0.56-0.8,0.85L66.7,53.39z"/>
	<path class="st1" d="M67.52,45.82c-0.04-0.04-0.08-0.07-0.13-0.11c0,0,0,0,0,0C67.43,45.75,67.47,45.79,67.52,45.82z"/>
	<path class="st1" d="M70.56,48.45C70.56,48.45,70.56,48.45,70.56,48.45c0.14,0.13,0.27,0.27,0.42,0.41l-0.31-0.3
		C70.64,48.52,70.6,48.49,70.56,48.45z"/>
	<path class="st1" d="M65.81,53.56c0.01,0.01,0.03,0.02,0.04,0.03c-0.04-0.03-0.07-0.06-0.1-0.09
		C65.76,53.52,65.79,53.54,65.81,53.56z"/>
	<path class="st1" d="M64.18,51.98c-0.03,0.04-0.07,0.07-0.1,0.11c0.06-0.06,0.11-0.11,0.17-0.17
		C64.22,51.94,64.2,51.96,64.18,51.98z"/>
	<path class="st1" d="M82.22,47.84c-0.2,0.27-0.39,0.55-0.59,0.83C81.83,48.39,82.03,48.11,82.22,47.84z"/>
	<path class="st1" d="M81.62,48.67L81.62,48.67c-0.01,0.01-0.01,0.02-0.02,0.03C81.61,48.69,81.62,48.68,81.62,48.67z"/>
	<path class="st1" d="M54.82,58.6C54.82,58.61,54.82,58.61,54.82,58.6c-0.01-0.01-0.02-0.04-0.04-0.06
		C54.79,58.56,54.81,58.58,54.82,58.6z"/>
	<path class="st1" d="M56.44,59.99c0.01,0,0.02,0.01,0.03,0.01c-0.01-0.01-0.03-0.01-0.04-0.02C56.43,59.98,56.44,59.98,56.44,59.99
		z"/>
	<path class="st1" d="M60.95,49.06c-0.03,0.03-0.07,0.07-0.1,0.1c0.1-0.1,0.2-0.2,0.31-0.3C61.09,48.92,61.02,48.99,60.95,49.06z"/>
	<path class="st1" d="M67.66,46.3c0.06-0.07,0.13-0.13,0.19-0.2c-0.23,0.23-0.45,0.45-0.68,0.68C67.33,46.62,67.49,46.46,67.66,46.3
		z"/>
	<path class="st1" d="M61.22,49.49c0.01,0.01,0.01,0.01,0.02,0.02c0.02,0.02,0.04,0.03,0.06,0.05c-0.03-0.03-0.07-0.06-0.1-0.09
		C61.2,49.48,61.21,49.48,61.22,49.49z"/>
	<path class="st1" d="M64.6,49.35c0.18-0.18,0.35-0.35,0.53-0.53c0.03-0.03,0.05-0.05,0.08-0.08c-0.37,0.36-0.73,0.73-1.1,1.1
		C64.27,49.68,64.43,49.51,64.6,49.35z"/>
	<path class="st1" d="M78.87,51.37c-4.64,5.16-9.41,10.23-14.1,15.35c-4.04,4.41-7.45,9.28-10.45,14.46c-0.3,0.5-0.6,1-0.86,1.43
		C41.17,72.14,28.95,61.69,16.62,51.18c-0.02,0.03-0.04,0.05-0.06,0.08c-0.09,0.11-0.17,0.23-0.26,0.34
		c0.75,0.64,1.49,1.27,2.24,1.91c0.43,0.36,0.85,0.72,1.27,1.09c0.76,0.65,1.51,1.29,2.27,1.94c0.71,0.61,1.42,1.22,2.14,1.82
		c0.82,0.7,1.64,1.4,2.45,2.09c0.66,0.56,1.31,1.12,1.97,1.68c0.87,0.75,1.75,1.49,2.62,2.24c0.46,0.39,0.92,0.79,1.38,1.18
		c1.29,1.1,2.58,2.2,3.86,3.3c1.71,1.46,3.43,2.92,5.14,4.39c0.6,0.52,1.21,1.03,1.81,1.55c2.14,1.83,4.29,3.66,6.43,5.49
		c1.22,1.04,2.44,2.08,3.66,3.12c0.26-0.43,0.56-0.93,0.86-1.43c0.18-0.3,0.35-0.61,0.53-0.91c0.06-0.09,0.11-0.19,0.17-0.28
		c0.1-0.16,0.19-0.32,0.29-0.48c0.05-0.08,0.09-0.16,0.14-0.23c0-0.01,0.01-0.01,0.01-0.02c0.01-0.02,0.02-0.03,0.03-0.05
		c0.13-0.21,0.26-0.43,0.39-0.64c0.02-0.04,0.05-0.07,0.07-0.11c0.02-0.03,0.04-0.06,0.06-0.09c0.06-0.09,0.11-0.18,0.17-0.27
		c0.13-0.2,0.26-0.41,0.38-0.61c0.07-0.11,0.13-0.21,0.2-0.32c0.12-0.19,0.25-0.38,0.37-0.57c0.07-0.1,0.14-0.21,0.2-0.31
		c0.14-0.21,0.27-0.41,0.41-0.62c0.05-0.08,0.11-0.16,0.16-0.24c0.19-0.28,0.39-0.57,0.58-0.85c0.04-0.05,0.07-0.1,0.11-0.15
		c0.16-0.23,0.32-0.46,0.49-0.69c0.07-0.1,0.14-0.19,0.21-0.28c0.13-0.19,0.27-0.37,0.41-0.56c0.07-0.1,0.15-0.2,0.22-0.3
		c0.14-0.18,0.27-0.37,0.41-0.55c0.07-0.09,0.14-0.19,0.21-0.28c0.17-0.22,0.33-0.44,0.5-0.65c0.04-0.05,0.08-0.11,0.13-0.16
		c0.21-0.27,0.42-0.54,0.64-0.8c0.06-0.07,0.12-0.14,0.17-0.21c0.16-0.2,0.32-0.39,0.48-0.58c0.08-0.09,0.16-0.19,0.23-0.28
		c0.15-0.17,0.29-0.35,0.44-0.52c0.08-0.09,0.16-0.19,0.24-0.28c0.16-0.18,0.31-0.36,0.47-0.54c0.07-0.08,0.14-0.16,0.22-0.24
		c0.23-0.26,0.46-0.51,0.69-0.77c1.16-1.26,2.32-2.53,3.48-3.78c0,0,0,0,0,0c0,0,0,0,0,0c0.01-0.01,0.02-0.02,0.03-0.04
		c0.67-0.73,1.35-1.46,2.02-2.18c0.56-0.6,1.11-1.2,1.66-1.8c0.22-0.23,0.43-0.47,0.65-0.7c0.46-0.5,0.91-0.99,1.37-1.49
		c0.25-0.27,0.49-0.54,0.74-0.81c0.43-0.47,0.87-0.95,1.3-1.42c0.24-0.26,0.48-0.53,0.72-0.79c0.49-0.54,0.98-1.08,1.47-1.62
		c0.21-0.24,0.43-0.47,0.64-0.71c0.09-0.1,0.19-0.21,0.28-0.32c0.04-0.05,0.08-0.09,0.12-0.14c0.05-0.06,0.1-0.12,0.15-0.18
		c0.04-0.05,0.09-0.11,0.13-0.16c0.04-0.05,0.09-0.11,0.13-0.16c0.05-0.06,0.09-0.12,0.14-0.18c0.04-0.05,0.08-0.1,0.12-0.15
		c0.05-0.06,0.09-0.12,0.14-0.18c0.04-0.05,0.08-0.1,0.12-0.15c0.05-0.06,0.09-0.12,0.14-0.19c0.04-0.05,0.07-0.1,0.11-0.15
		c0.05-0.06,0.09-0.13,0.14-0.19c0.04-0.05,0.07-0.1,0.11-0.14c0.05-0.07,0.1-0.13,0.15-0.2c0.03-0.04,0.06-0.09,0.1-0.13
		c0.02-0.03,0.04-0.05,0.05-0.08c0.18-0.25,0.35-0.49,0.53-0.74c0.01-0.01,0.01-0.02,0.02-0.03l0,0c0,0,0,0,0,0
		c0.2-0.28,0.4-0.56,0.59-0.83c0.02-0.03,0.04-0.06,0.06-0.09c0.07-0.1,0.15-0.2,0.22-0.3c0.03-0.03,0.05-0.07,0.08-0.1
		c0.09-0.13,0.19-0.25,0.28-0.38c-0.14-0.11-0.27-0.22-0.41-0.33C81.35,48.14,80.22,49.87,78.87,51.37z"/>
	<path class="st1" d="M46.79,21.66c-3.01,3.47-5.95,7.02-9.08,10.35c-4.96,5.29-10.07,10.41-15.08,15.63
		c-0.79,0.84-1.44,1.83-2.1,2.68c0.13,0.11,0.27,0.23,0.4,0.34c0.05-0.06,0.09-0.12,0.14-0.19c0.05-0.07,0.1-0.14,0.15-0.21
		c0.01-0.01,0.01-0.02,0.02-0.02c0.07-0.1,0.15-0.2,0.22-0.3c0.04-0.05,0.07-0.1,0.11-0.15c0.1-0.14,0.21-0.27,0.31-0.41
		c0.02-0.02,0.03-0.04,0.05-0.06c0.09-0.11,0.18-0.23,0.27-0.34c0.03-0.04,0.07-0.08,0.11-0.13c0.08-0.09,0.16-0.19,0.24-0.28
		c0.02-0.03,0.05-0.06,0.07-0.08c0,0,0,0,0.01-0.01c0.03-0.03,0.06-0.06,0.09-0.09c0.89-0.93,1.79-1.86,2.69-2.79
		c0.22-0.22,0.43-0.45,0.65-0.67c0.85-0.88,1.71-1.76,2.56-2.63c0.52-0.54,1.05-1.07,1.57-1.61c0.11-0.11,0.21-0.22,0.32-0.33
		c0.47-0.48,0.94-0.96,1.4-1.44c0.19-0.2,0.38-0.39,0.57-0.59c0.4-0.41,0.8-0.82,1.19-1.24c0.2-0.21,0.4-0.42,0.6-0.63
		c0.4-0.41,0.79-0.83,1.19-1.24c0.2-0.21,0.4-0.42,0.6-0.62c0.58-0.61,1.16-1.22,1.74-1.84c0.35-0.37,0.7-0.75,1.05-1.13
		c0.1-0.11,0.2-0.22,0.3-0.33c0.26-0.29,0.53-0.58,0.79-0.88c0.09-0.1,0.18-0.2,0.27-0.3c0.34-0.38,0.67-0.76,1.01-1.14
		c0.06-0.07,0.13-0.15,0.19-0.22c0.28-0.32,0.56-0.65,0.84-0.97c0.11-0.12,0.21-0.25,0.32-0.37c0.26-0.3,0.52-0.61,0.78-0.91
		c0.08-0.09,0.16-0.19,0.24-0.28c0.32-0.37,0.64-0.74,0.95-1.11c0.09-0.1,0.18-0.21,0.27-0.31c0.03-0.04,0.07-0.08,0.1-0.12
		c0.43-0.5,0.86-1,1.29-1.5c0.09-0.11,0.19-0.22,0.28-0.33c0,0,0,0,0,0c0.11-0.13,0.23-0.26,0.34-0.39
		c0.01-0.01,0.02-0.03,0.04-0.04c0.02-0.02,0.04-0.05,0.06-0.08c0.01-0.01,0.01-0.02,0.02-0.02c0.01-0.02,0.03-0.05,0.04-0.07
		c0-0.01,0.01-0.01,0.01-0.02c0.02-0.03,0.03-0.07,0.04-0.1c0-0.01,0.01-0.01,0.01-0.02c0.01-0.03,0.03-0.07,0.04-0.1c0,0,0,0,0,0
		c0.03-0.07,0.06-0.15,0.09-0.22c1.19,0.98,2.38,1.96,3.57,2.93c0.44,0.36,0.88,0.72,1.32,1.08c0.81,0.67,1.62,1.33,2.43,1.99
		c0.41,0.34,0.82,0.67,1.23,1.01c1,0.82,2,1.64,3,2.47c0.15,0.12,0.3,0.24,0.44,0.36c3.38,2.77,6.76,5.54,10.14,8.32
		c0.41,0.34,0.83,0.68,1.24,1.02c0.56,0.46,1.11,0.91,1.67,1.37c0.76,0.62,1.51,1.24,2.27,1.86c0.48,0.39,0.96,0.79,1.44,1.18
		c0.7,0.58,1.4,1.15,2.11,1.73c0.08,0.07,0.16,0.13,0.24,0.2c0.11-0.15,0.21-0.29,0.32-0.43C68.06,38.22,57.65,29.71,47.1,21.03
		C46.99,21.26,46.93,21.51,46.79,21.66z"/>
	<path class="st1" d="M37.92,51.25c0.62-0.6,1.24-1.21,1.86-1.82c0.36-0.36,0.73-0.71,1.09-1.07c0.6-0.58,1.19-1.17,1.79-1.76
		c0.34-0.34,0.69-0.67,1.03-1.01c0.78-0.77,1.57-1.53,2.35-2.3l0,0l0,0c0.6-0.59,1.21-1.18,1.81-1.77c0.45-0.44,0.89-0.87,1.34-1.31
		c0.32-0.31,0.64-0.63,0.96-0.94c0.55-0.54,1.1-1.08,1.66-1.62c0.92-0.9,1.85-1.81,2.77-2.71c-0.16-0.12-0.33-0.24-0.49-0.36
		c-6.78,6.63-13.45,13.17-19.95,19.51c-1.7-1.26-3.52-2.6-5.42-4.02c-0.12,0.14-0.25,0.28-0.37,0.43c0.39,0.29,0.77,0.57,1.15,0.85
		c0.06,0.04,0.11,0.08,0.17,0.12c0.37,0.27,0.73,0.54,1.1,0.81l0.01,0.01c0.22,0.17,0.45,0.33,0.67,0.49
		c0.19,0.14,0.38,0.28,0.57,0.42c0.04,0.03,0.08,0.06,0.11,0.08c0.08,0.06,0.17,0.12,0.25,0.19c0.63,0.47,1.25,0.93,1.85,1.37
		c0.91-0.89,1.83-1.79,2.75-2.69C37.31,51.85,37.62,51.55,37.92,51.25z"/>
	<path class="st1" d="M47.73,57.51c0.89-0.89,1.78-1.78,2.67-2.66c0.05-0.05,0.1-0.1,0.15-0.15c0.14-0.14,0.29-0.29,0.43-0.43
		c0.11-0.11,0.21-0.21,0.32-0.32c1.28-1.28,2.57-2.56,3.85-3.84c0.15-0.15,0.29-0.29,0.44-0.44c0.02-0.02,0.05-0.05,0.07-0.07
		c0.12-0.12,0.23-0.23,0.35-0.35c0.83-0.82,1.65-1.64,2.48-2.46c0.15-0.15,0.3-0.3,0.45-0.45c0.35-0.35,0.7-0.7,1.05-1.04
		c0.15-0.15,0.31-0.3,0.46-0.46c0.92-0.91,1.83-1.82,2.75-2.73c-0.13-0.09-0.25-0.19-0.38-0.28c-0.04-0.03-0.07-0.05-0.11-0.08
		c0,0,0,0,0,0c-6.76,6.72-13.44,13.37-20.16,20.06c-1.54-1.32-3.2-2.74-4.95-4.25c-0.11,0.13-0.22,0.27-0.34,0.4
		c0.3,0.26,0.6,0.51,0.89,0.77c0.08,0.07,0.16,0.14,0.24,0.2c0.23,0.2,0.45,0.39,0.68,0.58c0.07,0.06,0.14,0.12,0.21,0.18
		c0.27,0.23,0.54,0.46,0.81,0.69c0.15,0.13,0.29,0.25,0.44,0.38c0.1,0.09,0.21,0.18,0.31,0.26c0.08,0.07,0.15,0.13,0.23,0.19
		l0.01,0.01c0.3,0.26,0.59,0.51,0.88,0.76c0.07,0.06,0.14,0.12,0.21,0.18c0.12,0.11,0.25,0.21,0.37,0.32
		c0.03,0.03,0.06,0.06,0.1,0.08c1.59-1.58,3.18-3.17,4.77-4.75C47.52,57.72,47.62,57.61,47.73,57.51z"/>
	<path class="st1" d="M51.07,69.15c-1.74-1.48-3.45-2.95-5.28-4.53c-0.12,0.13-0.23,0.26-0.35,0.39c0.03,0.03,0.07,0.06,0.1,0.09
		c0.07,0.06,0.15,0.13,0.22,0.19c0.17,0.15,0.35,0.3,0.52,0.44c0.05,0.04,0.1,0.09,0.15,0.13c0.22,0.19,0.43,0.37,0.65,0.56l0,0l0,0
		c0,0,0,0,0,0l0,0c0.29,0.25,0.57,0.49,0.85,0.73c0.14,0.12,0.28,0.24,0.42,0.36c0.46,0.4,0.92,0.79,1.37,1.18
		c0.01,0.01,0.02,0.02,0.03,0.03c0.46,0.4,0.92,0.79,1.39,1.19c0.2-0.24,0.4-0.48,0.6-0.72c0.06-0.07,0.12-0.15,0.18-0.22
		c0.54-0.64,1.07-1.27,1.61-1.9c0.03-0.03,0.05-0.06,0.08-0.09c0.02-0.02,0.04-0.05,0.06-0.07c0.04-0.05,0.08-0.09,0.12-0.14
		l0.01-0.02l0,0c0.29-0.35,0.59-0.7,0.88-1.05c0.06-0.07,0.12-0.14,0.18-0.21c0.3-0.35,0.59-0.7,0.89-1.06
		c-0.14-0.12-0.28-0.24-0.42-0.36C53.91,65.78,52.52,67.42,51.07,69.15z"/>
	<path class="st1" d="M61.81,55.92c0-0.01,0-0.02-0.01-0.02c0,1.87-1.36,3.4-3.37,3.66c-1.86,0.24-3.72-0.99-4.1-2.65
		c0,0.05,0,0.11,0,0.16c0,0.02,0,0.04,0,0.06c0.01,0.08,0.01,0.17,0.03,0.25c0.01,0.06,0.02,0.11,0.03,0.17
		c0,0.02,0.01,0.04,0.01,0.05c0.01,0.04,0.01,0.07,0.02,0.11c0.01,0.02,0.01,0.04,0.02,0.07c0.01,0.03,0.02,0.06,0.03,0.1
		c0.01,0.02,0.02,0.05,0.02,0.07c0.01,0.03,0.02,0.06,0.03,0.09c0.01,0.02,0.02,0.05,0.03,0.07c0.01,0.03,0.02,0.06,0.03,0.08
		c0.01,0.02,0.02,0.05,0.03,0.07c0.01,0.03,0.02,0.05,0.04,0.08c0.01,0.02,0.02,0.05,0.04,0.07c0.01,0.03,0.03,0.05,0.04,0.08
		c0.01,0.02,0.03,0.05,0.04,0.07c0.01,0.02,0.03,0.05,0.04,0.07c0.04,0.06,0.09,0.13,0.13,0.19c0.01,0.01,0.02,0.03,0.03,0.04
		c0.04,0.06,0.09,0.11,0.14,0.17c0,0.01,0.01,0.01,0.01,0.02c0.05,0.06,0.11,0.12,0.16,0.17c0.01,0.01,0.03,0.03,0.04,0.04
		c0.06,0.06,0.12,0.11,0.18,0.16c0,0,0.01,0,0.01,0.01c0.06,0.05,0.12,0.1,0.18,0.14c0.01,0.01,0.03,0.02,0.04,0.03
		c0.06,0.05,0.13,0.09,0.2,0.13c0.01,0.01,0.02,0.01,0.03,0.02c0.06,0.04,0.12,0.08,0.19,0.11c0.01,0.01,0.03,0.02,0.04,0.02
		c0.07,0.04,0.14,0.07,0.22,0.11c0.01,0.01,0.03,0.01,0.04,0.02c0.06,0.03,0.12,0.05,0.18,0.08c0.02,0.01,0.03,0.01,0.05,0.02
		c0.07,0.03,0.15,0.05,0.22,0.08c0.01,0,0.03,0.01,0.04,0.01c0.06,0.02,0.13,0.04,0.19,0.05c0.02,0,0.04,0.01,0.05,0.01
		c0.08,0.02,0.15,0.03,0.23,0.05c0.01,0,0.02,0,0.03,0c0.07,0.01,0.14,0.02,0.21,0.03c0.02,0,0.04,0,0.06,0.01
		c0.08,0.01,0.16,0.01,0.24,0.01c0.01,0,0.01,0,0.02,0c0.07,0,0.15,0,0.22,0c0.02,0,0.04,0,0.06,0c0.08-0.01,0.16-0.01,0.24-0.02
		c2.18-0.28,3.61-2.06,3.34-4.15c-0.01-0.06-0.02-0.12-0.03-0.19C61.82,55.95,61.82,55.93,61.81,55.92z"/>
	<path class="st1" d="M66.13,53.14c-0.61-0.51-1.14-0.97-1.69-1.43c-0.07,0.07-0.14,0.14-0.2,0.21c-0.06,0.06-0.11,0.11-0.17,0.17
		c0.09,0.08,0.18,0.15,0.27,0.22c0.03,0.02,0.06,0.05,0.09,0.07c0.06,0.05,0.12,0.1,0.17,0.15c0.03,0.03,0.07,0.06,0.1,0.09
		c0.05,0.04,0.1,0.09,0.16,0.13c0.04,0.03,0.08,0.07,0.12,0.1c0.04,0.03,0.07,0.06,0.11,0.09c0.11,0.09,0.22,0.19,0.33,0.28
		c0.02,0.02,0.05,0.04,0.07,0.06c0.08,0.07,0.17,0.14,0.26,0.22c0.03,0.03,0.07,0.06,0.1,0.09c0.12,0.1,0.24,0.2,0.37,0.31
		c0.27-0.29,0.54-0.57,0.8-0.85c0.12-0.13,0.24-0.25,0.36-0.38c0.06-0.07,0.13-0.14,0.19-0.2c0.14-0.14,0.27-0.29,0.41-0.43
		c0.07-0.08,0.14-0.15,0.21-0.22c0.12-0.13,0.24-0.25,0.36-0.38c0.08-0.08,0.16-0.17,0.24-0.25c0.11-0.12,0.22-0.23,0.32-0.34
		c0.08-0.09,0.17-0.18,0.25-0.27c0.1-0.1,0.2-0.21,0.3-0.31c0.09-0.09,0.18-0.19,0.26-0.28c0.1-0.1,0.19-0.21,0.29-0.31
		c0.08-0.09,0.17-0.18,0.25-0.26c0.18-0.19,0.35-0.37,0.53-0.55c-0.14-0.14-0.28-0.28-0.42-0.41C69.19,49.9,67.71,51.46,66.13,53.14
		z"/>
	<path class="st1" d="M65.21,48.75c0.21-0.2,0.41-0.41,0.61-0.61c0.22-0.22,0.44-0.44,0.66-0.66c0.23-0.23,0.46-0.46,0.69-0.69
		c0.23-0.23,0.45-0.45,0.68-0.68c-0.1-0.08-0.19-0.16-0.28-0.24c-0.02-0.01-0.03-0.03-0.05-0.04c-0.04-0.04-0.08-0.07-0.13-0.11
		c-1.51,1.52-3.01,3-4.56,4.55c-0.54-0.5-1.07-0.97-1.62-1.47c-0.02,0.02-0.04,0.04-0.06,0.06c-0.1,0.1-0.2,0.2-0.31,0.3
		c0.11,0.11,0.23,0.21,0.34,0.31c0.03,0.03,0.07,0.06,0.1,0.09c0.07,0.06,0.14,0.13,0.21,0.19c0.03,0.03,0.07,0.06,0.1,0.09
		c0.08,0.07,0.16,0.14,0.23,0.21c0.01,0.01,0.02,0.02,0.03,0.03c0.16,0.15,0.32,0.29,0.49,0.44c0.02,0.01,0.03,0.03,0.05,0.04
		c0.17,0.16,0.35,0.31,0.52,0.48c0.01-0.01,0.02-0.02,0.03-0.03c0.39-0.39,0.77-0.77,1.15-1.15C64.47,49.48,64.84,49.11,65.21,48.75
		z"/>
	<path class="st1" d="M85.29,44c-8.24-6.72-16.41-13.4-24.56-20.07c-4-3.27-7.99-6.53-11.98-9.8l-3.32-2.72l-2.32,3.61
		c-0.23,0.36-0.45,0.71-0.67,1.05c-0.61,0.95-1.16,1.82-1.77,2.68c-3.04,4.3-6.73,8.02-10.72,12.02c-0.1,0.1-0.21,0.21-0.31,0.32
		l0,0l0,0c-4.11,4.16-8.13,8.41-12.09,12.69c-1.26,1.36-2.45,2.99-3.38,4.28c-0.33,0.46-0.63,0.87-0.89,1.21l-2.2,2.89l2.76,2.35
		c6.52,5.56,13,11.09,19.47,16.61c5.92,5.05,11.84,10.1,17.78,15.17l3.41,2.91l2.34-3.82c0.27-0.45,0.58-0.96,0.87-1.45l0.02-0.04
		l0.01-0.02c2.89-5,6.15-9.63,9.96-13.79l0,0c1.73-1.89,3.49-3.79,5.25-5.7c2.97-3.21,5.95-6.43,8.87-9.68l0.01-0.01
		c1.12-1.25,2.24-2.82,3.13-4.06c0.37-0.52,0.7-0.99,0.98-1.34l2.24-2.95L85.29,44z M82.87,46.97c-0.09,0.12-0.19,0.25-0.28,0.38
		c-0.03,0.03-0.05,0.07-0.08,0.1c-0.07,0.1-0.15,0.2-0.22,0.3c-0.02,0.03-0.04,0.06-0.06,0.09c-0.2,0.27-0.39,0.55-0.59,0.83
		c0,0,0,0,0,0l0,0l0,0c-0.01,0.01-0.01,0.02-0.02,0.03c-0.17,0.24-0.35,0.49-0.53,0.74c-0.01,0.02-0.02,0.03-0.03,0.05
		c-0.01,0.01-0.01,0.02-0.02,0.03c-0.03,0.04-0.06,0.09-0.1,0.13c-0.05,0.07-0.1,0.13-0.15,0.2c-0.04,0.05-0.07,0.1-0.11,0.14
		c-0.05,0.06-0.09,0.13-0.14,0.19c-0.04,0.05-0.07,0.1-0.11,0.15c-0.05,0.06-0.09,0.12-0.14,0.19c-0.04,0.05-0.08,0.1-0.12,0.15
		c-0.05,0.06-0.09,0.12-0.14,0.18c-0.04,0.05-0.08,0.1-0.12,0.15c-0.05,0.06-0.09,0.12-0.14,0.18c-0.04,0.05-0.09,0.11-0.13,0.16
		c-0.04,0.05-0.09,0.11-0.13,0.16c-0.05,0.06-0.1,0.12-0.15,0.18c-0.04,0.05-0.08,0.09-0.12,0.14c-0.09,0.11-0.18,0.21-0.28,0.32
		c-0.07,0.07-0.13,0.15-0.2,0.22c0,0-0.01,0.01-0.01,0.01c-0.14,0.16-0.29,0.32-0.43,0.48c-0.49,0.54-0.98,1.08-1.47,1.62
		c-0.24,0.26-0.48,0.53-0.72,0.79c-0.43,0.47-0.87,0.95-1.3,1.42c-0.25,0.27-0.49,0.54-0.74,0.81c-0.46,0.5-0.91,0.99-1.37,1.49
		c-0.22,0.23-0.43,0.47-0.65,0.7c-0.55,0.6-1.11,1.2-1.66,1.8c-0.08,0.09-0.16,0.18-0.24,0.26c-0.59,0.64-1.18,1.28-1.77,1.92
		c-0.01,0.01-0.02,0.02-0.03,0.04c0,0,0,0,0,0c0,0,0,0,0,0c-1.16,1.26-2.33,2.52-3.48,3.78c-0.23,0.25-0.46,0.51-0.69,0.77
		c-0.07,0.08-0.14,0.16-0.22,0.24c-0.16,0.18-0.31,0.36-0.47,0.54c-0.08,0.09-0.16,0.19-0.24,0.28c-0.15,0.17-0.29,0.35-0.44,0.52
		c-0.08,0.09-0.16,0.19-0.23,0.28c-0.16,0.19-0.32,0.39-0.48,0.58c-0.06,0.07-0.12,0.14-0.17,0.21c-0.22,0.27-0.43,0.53-0.64,0.8
		c-0.04,0.05-0.08,0.11-0.13,0.16c-0.17,0.22-0.34,0.43-0.5,0.65c-0.07,0.09-0.14,0.19-0.21,0.28c-0.14,0.18-0.28,0.37-0.41,0.55
		c-0.07,0.1-0.15,0.2-0.22,0.3c-0.14,0.18-0.27,0.37-0.41,0.56c-0.07,0.09-0.14,0.19-0.21,0.28c-0.16,0.23-0.33,0.46-0.49,0.69
		c-0.04,0.05-0.07,0.1-0.11,0.15c-0.2,0.28-0.39,0.56-0.58,0.85c-0.05,0.08-0.11,0.16-0.16,0.24c-0.14,0.21-0.28,0.41-0.41,0.62
		c-0.07,0.1-0.14,0.21-0.2,0.31c-0.12,0.19-0.25,0.38-0.37,0.57c-0.07,0.1-0.14,0.21-0.2,0.32c-0.13,0.2-0.26,0.4-0.38,0.61
		c-0.06,0.09-0.11,0.18-0.17,0.27c-0.02,0.03-0.04,0.06-0.06,0.09c-0.02,0.04-0.05,0.07-0.07,0.11c-0.13,0.21-0.26,0.43-0.39,0.64
		c-0.01,0.02-0.02,0.03-0.03,0.05c0,0.01-0.01,0.01-0.01,0.02c-0.05,0.08-0.09,0.16-0.14,0.23c-0.1,0.16-0.19,0.32-0.29,0.48
		c-0.06,0.09-0.11,0.19-0.17,0.28c-0.18,0.3-0.36,0.61-0.53,0.91c-0.3,0.5-0.6,1-0.86,1.43c-0.98-0.84-1.97-1.68-2.95-2.52
		c-0.05-0.04-0.1-0.09-0.16-0.13c-0.18-0.16-0.37-0.31-0.55-0.47c-2.14-1.83-4.29-3.66-6.43-5.49c-0.6-0.52-1.21-1.03-1.81-1.55
		c-1.71-1.46-3.42-2.92-5.14-4.39c-0.25-0.21-0.49-0.42-0.74-0.63c-1.04-0.89-2.09-1.78-3.13-2.67c-0.46-0.39-0.92-0.79-1.38-1.18
		c-0.87-0.75-1.75-1.49-2.62-2.24c-0.66-0.56-1.31-1.12-1.97-1.68c-0.82-0.7-1.64-1.4-2.45-2.09c-0.71-0.61-1.42-1.21-2.14-1.82
		c-0.76-0.64-1.51-1.29-2.27-1.94c-0.42-0.36-0.85-0.72-1.27-1.09c-0.74-0.64-1.49-1.27-2.24-1.91c0.09-0.11,0.17-0.23,0.26-0.34
		c0.02-0.03,0.04-0.05,0.06-0.08c-0.13-0.11-0.27-0.23-0.4-0.34c1.24-1.63,2.49-3.55,4.04-5.21c3.94-4.26,7.93-8.48,12-12.6
		c4.05-4.07,8.11-8.1,11.45-12.83c0.88-1.25,1.69-2.57,2.52-3.86C58.38,26.26,70.51,36.2,82.78,46.2c-0.11,0.14-0.21,0.29-0.32,0.43
		C82.6,46.74,82.73,46.85,82.87,46.97z"/>
	<path class="st1" d="M75.92,45.39c-0.48-0.39-0.96-0.79-1.44-1.18c-0.76-0.62-1.51-1.24-2.27-1.86c-0.56-0.46-1.11-0.91-1.67-1.37
		c-0.41-0.34-0.83-0.68-1.24-1.02c-2.13-1.75-4.26-3.49-6.38-5.24l-0.05-0.04c-1.23-1.01-2.47-2.02-3.7-3.04
		c-0.15-0.12-0.3-0.24-0.44-0.36c-1-0.82-2-1.64-3-2.47c-0.41-0.34-0.82-0.67-1.23-1.01c-0.81-0.66-1.62-1.33-2.43-1.99
		c-0.44-0.36-0.88-0.72-1.32-1.08c-0.17-0.14-0.34-0.28-0.52-0.42c-0.87-0.72-1.74-1.43-2.62-2.15c-0.15-0.12-0.29-0.24-0.44-0.36
		c-0.03,0.07-0.06,0.15-0.09,0.22c0,0,0,0,0,0c-0.01,0.03-0.03,0.07-0.04,0.1c0,0.01-0.01,0.01-0.01,0.02
		c-0.01,0.03-0.03,0.07-0.04,0.1c0,0.01-0.01,0.01-0.01,0.02c-0.01,0.02-0.03,0.05-0.04,0.07c-0.01,0.01-0.01,0.02-0.02,0.02
		c-0.02,0.03-0.04,0.05-0.06,0.08c-0.01,0.01-0.02,0.03-0.04,0.04c-0.11,0.13-0.23,0.26-0.34,0.39c0,0,0,0,0,0
		c-0.09,0.11-0.19,0.22-0.28,0.33c-0.43,0.5-0.86,1-1.29,1.5c-0.03,0.04-0.07,0.08-0.1,0.12c-0.09,0.1-0.18,0.21-0.27,0.31
		c-0.03,0.04-0.06,0.08-0.1,0.11c-0.29,0.33-0.57,0.67-0.86,1c-0.08,0.09-0.16,0.19-0.24,0.28c-0.26,0.3-0.52,0.61-0.78,0.91
		c-0.11,0.12-0.21,0.25-0.32,0.37c-0.28,0.32-0.56,0.65-0.84,0.97c-0.06,0.07-0.13,0.15-0.19,0.22c-0.34,0.38-0.67,0.76-1.01,1.14
		c-0.09,0.1-0.18,0.2-0.27,0.3c-0.26,0.29-0.53,0.58-0.79,0.88c-0.1,0.11-0.2,0.22-0.3,0.33c-0.35,0.38-0.7,0.76-1.05,1.13
		c-0.58,0.62-1.16,1.23-1.74,1.84c-0.2,0.21-0.4,0.42-0.6,0.62c-0.27,0.28-0.53,0.56-0.8,0.84c0,0-0.01,0.01-0.01,0.01
		c-0.13,0.13-0.25,0.26-0.38,0.39c-0.2,0.21-0.4,0.42-0.6,0.63c-0.4,0.41-0.79,0.82-1.19,1.24c-0.19,0.2-0.38,0.39-0.57,0.59
		c-0.47,0.48-0.93,0.96-1.4,1.44c-0.11,0.11-0.21,0.22-0.32,0.33c-0.52,0.54-1.05,1.07-1.57,1.61c-0.85,0.88-1.71,1.75-2.56,2.63
		c-0.22,0.22-0.43,0.45-0.65,0.67c-0.9,0.93-1.8,1.86-2.69,2.79c-0.03,0.03-0.06,0.06-0.09,0.09c0,0,0,0-0.01,0.01
		c-0.02,0.03-0.05,0.06-0.07,0.08c-0.08,0.09-0.16,0.18-0.24,0.28c-0.04,0.04-0.07,0.08-0.11,0.13c-0.09,0.11-0.18,0.22-0.27,0.34
		c-0.02,0.02-0.03,0.04-0.05,0.06c-0.11,0.14-0.21,0.27-0.31,0.41c-0.04,0.05-0.08,0.1-0.11,0.15c-0.07,0.1-0.15,0.2-0.22,0.3
		c-0.01,0.01-0.01,0.02-0.02,0.02c-0.05,0.07-0.1,0.14-0.15,0.21c-0.02,0.03-0.04,0.06-0.07,0.09c-0.02,0.03-0.05,0.07-0.07,0.1
		c10.53,9.02,20.97,17.92,31.48,26.9c0.21-0.31,0.43-0.56,0.59-0.84c3.73-5.82,8.24-11.01,13.01-15.97
		c3.54-3.66,7.03-7.43,10.5-11.17c0.67-0.72,1.23-1.55,1.76-2.27c-0.08-0.07-0.16-0.13-0.24-0.2
		C77.32,46.54,76.62,45.96,75.92,45.39z M32.4,53.46c-0.08-0.06-0.17-0.12-0.25-0.19c-0.04-0.03-0.08-0.06-0.11-0.08
		c-0.19-0.14-0.38-0.28-0.57-0.42c-0.22-0.16-0.44-0.33-0.67-0.49l-0.01-0.01c-0.36-0.27-0.73-0.54-1.1-0.81
		c-0.06-0.04-0.11-0.08-0.17-0.12c-0.38-0.28-0.76-0.57-1.15-0.85c0.12-0.14,0.25-0.28,0.37-0.43c-0.15-0.11-0.3-0.22-0.45-0.34
		c6.33-7.33,13.71-13.41,19.97-20.18c2.09,1.53,4.09,3.01,6.26,4.62c-0.14,0.13-0.27,0.27-0.41,0.4c0.16,0.12,0.33,0.24,0.49,0.36
		c-0.93,0.91-1.85,1.81-2.77,2.71c-0.55,0.54-1.11,1.08-1.66,1.62c-0.32,0.31-0.64,0.63-0.96,0.94c-0.45,0.44-0.9,0.88-1.34,1.31
		c-0.6,0.59-1.21,1.18-1.81,1.77l0,0l0,0l0,0c-0.79,0.77-1.57,1.54-2.35,2.3c-0.34,0.34-0.69,0.67-1.03,1.01
		c-0.6,0.59-1.2,1.17-1.79,1.76c-0.36,0.36-0.73,0.71-1.09,1.07c-0.62,0.61-1.24,1.21-1.86,1.82c-0.31,0.3-0.61,0.6-0.92,0.9
		c-0.92,0.9-1.84,1.8-2.75,2.69C33.65,54.39,33.04,53.93,32.4,53.46z M42.65,62.57c-0.03-0.03-0.06-0.06-0.1-0.08
		c-0.12-0.11-0.25-0.21-0.37-0.32c-0.07-0.06-0.14-0.12-0.21-0.18c-0.29-0.25-0.59-0.5-0.88-0.76l-0.01-0.01l0,0l0,0
		c-0.07-0.06-0.15-0.13-0.22-0.19c-0.1-0.09-0.21-0.18-0.31-0.26c-0.15-0.13-0.29-0.25-0.44-0.38c-0.27-0.23-0.54-0.46-0.81-0.69
		c-0.07-0.06-0.14-0.12-0.21-0.18c-0.22-0.19-0.45-0.39-0.68-0.58c-0.08-0.07-0.16-0.14-0.24-0.2c-0.3-0.25-0.59-0.51-0.89-0.77
		c0.11-0.13,0.22-0.27,0.34-0.4c-0.14-0.12-0.28-0.24-0.42-0.36c6.14-7.46,13.76-13.35,20.12-20.19c2,1.48,3.86,2.9,5.81,4.34
		c-0.13,0.13-0.27,0.27-0.4,0.4c0,0,0,0,0,0c0.04,0.03,0.07,0.05,0.11,0.08c0.13,0.09,0.25,0.19,0.38,0.28
		c-0.92,0.91-1.83,1.82-2.75,2.73c-0.15,0.15-0.31,0.3-0.46,0.46c-0.35,0.35-0.7,0.7-1.05,1.04c-0.15,0.15-0.3,0.3-0.45,0.45
		c-0.83,0.82-1.65,1.64-2.48,2.46c-0.12,0.12-0.23,0.23-0.35,0.35c-0.02,0.02-0.05,0.05-0.07,0.07c-0.15,0.15-0.29,0.29-0.44,0.44
		c-1.29,1.28-2.57,2.56-3.85,3.84c-0.11,0.11-0.21,0.21-0.32,0.32c-0.14,0.14-0.29,0.29-0.43,0.43c-0.05,0.05-0.1,0.1-0.15,0.15
		c-0.89,0.89-1.78,1.78-2.67,2.66c-0.11,0.1-0.21,0.21-0.32,0.31c-1.58,1.57-3.15,3.14-4.73,4.71
		C42.67,62.55,42.66,62.56,42.65,62.57z M55.76,64.44c-0.3,0.35-0.59,0.71-0.89,1.06c-0.06,0.07-0.12,0.14-0.18,0.21
		c-0.29,0.35-0.59,0.7-0.88,1.05l0,0l-0.01,0.02l0,0.01c-0.04,0.04-0.08,0.09-0.11,0.13c-0.02,0.02-0.04,0.05-0.06,0.07
		c-0.03,0.03-0.05,0.06-0.08,0.09c-0.53,0.63-1.07,1.26-1.61,1.9c-0.06,0.07-0.12,0.15-0.18,0.22c-0.2,0.24-0.4,0.48-0.6,0.72
		c-0.46-0.4-0.93-0.79-1.39-1.19c-0.01-0.01-0.02-0.02-0.03-0.03c-0.46-0.39-0.91-0.78-1.37-1.18c0,0-0.01-0.01-0.01-0.01
		c-0.03-0.03-0.07-0.06-0.1-0.09c-0.1-0.09-0.2-0.17-0.3-0.26c-0.28-0.24-0.57-0.49-0.85-0.73l0,0l0,0l0,0l0,0l0,0l-0.01-0.01
		c-0.21-0.18-0.43-0.37-0.64-0.55c-0.05-0.04-0.1-0.09-0.15-0.13c-0.17-0.15-0.34-0.3-0.52-0.44c-0.07-0.06-0.15-0.13-0.22-0.19
		c-0.03-0.03-0.07-0.06-0.1-0.09c0.12-0.13,0.23-0.26,0.35-0.39c-0.14-0.12-0.29-0.25-0.43-0.37c1.64-1.83,3.18-3.53,4.76-5.31
		c1.9,1.62,3.71,3.16,5.56,4.74c-0.11,0.13-0.23,0.27-0.34,0.4C55.48,64.2,55.62,64.32,55.76,64.44z M58.52,60.31
		c-0.08,0.01-0.16,0.02-0.24,0.02c-0.02,0-0.04,0-0.06,0c-0.07,0-0.15,0.01-0.22,0c-0.01,0-0.01,0-0.02,0
		c-0.08,0-0.16-0.01-0.24-0.01c-0.02,0-0.04,0-0.06-0.01c-0.07-0.01-0.14-0.02-0.21-0.03c-0.01,0-0.02,0-0.03,0
		c-0.08-0.01-0.15-0.03-0.23-0.05c-0.02,0-0.04-0.01-0.05-0.01c-0.06-0.02-0.13-0.03-0.19-0.05c-0.01,0-0.03-0.01-0.04-0.01
		c-0.07-0.02-0.15-0.05-0.22-0.08c-0.02-0.01-0.03-0.01-0.05-0.02c-0.06-0.02-0.12-0.05-0.18-0.08c-0.01,0-0.02-0.01-0.03-0.01
		c0,0-0.01,0-0.01-0.01c-0.07-0.03-0.15-0.07-0.22-0.11c-0.01-0.01-0.03-0.02-0.04-0.02c-0.06-0.04-0.13-0.07-0.19-0.11
		c-0.01-0.01-0.02-0.01-0.03-0.02c-0.07-0.04-0.13-0.09-0.2-0.13c-0.01-0.01-0.03-0.02-0.04-0.03c-0.06-0.05-0.12-0.09-0.18-0.14
		c0,0-0.01,0-0.01-0.01c-0.06-0.05-0.12-0.11-0.18-0.16c-0.01-0.01-0.03-0.03-0.04-0.04c-0.06-0.06-0.11-0.11-0.16-0.17
		c0-0.01-0.01-0.01-0.01-0.02c-0.05-0.06-0.09-0.11-0.14-0.17c-0.01-0.01-0.02-0.03-0.03-0.04c-0.05-0.06-0.09-0.13-0.13-0.19
		c0,0,0-0.01-0.01-0.01c-0.01-0.02-0.02-0.04-0.04-0.06c-0.01-0.02-0.03-0.05-0.04-0.07c-0.01-0.03-0.03-0.05-0.04-0.08
		c-0.01-0.02-0.03-0.05-0.04-0.07c-0.01-0.03-0.03-0.05-0.04-0.08c-0.01-0.02-0.02-0.05-0.03-0.07c-0.01-0.03-0.02-0.06-0.03-0.08
		c-0.01-0.02-0.02-0.05-0.03-0.07c-0.01-0.03-0.02-0.06-0.03-0.09c-0.01-0.02-0.02-0.05-0.02-0.07c-0.01-0.03-0.02-0.06-0.03-0.1
		c-0.01-0.02-0.01-0.04-0.02-0.07c-0.01-0.04-0.02-0.07-0.02-0.11c0-0.02-0.01-0.04-0.01-0.05c-0.01-0.05-0.02-0.11-0.03-0.17
		c-0.01-0.08-0.02-0.17-0.03-0.25c0-0.02,0-0.04,0-0.06c0-0.05,0-0.11,0-0.16c-0.02-0.09-0.04-0.19-0.05-0.29
		c-0.29-2.02,1.25-3.79,3.48-4.06c1.88-0.23,3.77,1.1,4.01,2.84c0.02,0.17,0.03,0.33,0.03,0.5c0,0.01,0,0.02,0.01,0.02
		c0,0.02,0.01,0.04,0.01,0.06c0.01,0.06,0.02,0.12,0.03,0.19C62.13,58.25,60.71,60.03,58.52,60.31z M62.92,51.03
		c-0.17-0.16-0.35-0.32-0.52-0.48c-0.02-0.01-0.03-0.03-0.05-0.04c-0.16-0.15-0.32-0.29-0.49-0.44c-0.01-0.01-0.02-0.02-0.03-0.03
		c-0.08-0.07-0.16-0.14-0.23-0.21c-0.03-0.03-0.07-0.06-0.1-0.09c-0.07-0.06-0.14-0.13-0.21-0.19c-0.02-0.02-0.04-0.03-0.06-0.05
		c-0.01-0.01-0.01-0.01-0.02-0.02c-0.01-0.01-0.02-0.01-0.02-0.02c-0.11-0.1-0.23-0.21-0.34-0.31c0.03-0.03,0.07-0.07,0.1-0.1
		c0.07-0.07,0.14-0.14,0.21-0.2c0.02-0.02,0.04-0.04,0.06-0.06c-0.15-0.13-0.29-0.27-0.44-0.4c1.54-1.53,3.18-3.13,4.88-4.81
		c0.71,0.59,1.34,1.1,2.12,1.75c-0.13,0.13-0.25,0.25-0.38,0.38c0.04,0.03,0.08,0.07,0.13,0.11c0.02,0.01,0.03,0.03,0.05,0.04
		c0.09,0.08,0.19,0.16,0.28,0.24c-0.06,0.07-0.13,0.13-0.19,0.2c-0.16,0.16-0.32,0.32-0.48,0.48c-0.23,0.23-0.46,0.46-0.69,0.69
		c-0.22,0.22-0.44,0.44-0.66,0.66c-0.2,0.2-0.41,0.41-0.61,0.61c-0.03,0.03-0.05,0.05-0.08,0.08c-0.18,0.18-0.35,0.35-0.53,0.53
		c-0.16,0.16-0.33,0.33-0.49,0.49c-0.38,0.38-0.77,0.76-1.15,1.15C62.94,51.01,62.93,51.02,62.92,51.03z M70.46,49.41
		c-0.08,0.09-0.17,0.17-0.25,0.26c-0.1,0.1-0.19,0.2-0.29,0.31c-0.09,0.09-0.18,0.19-0.26,0.28c-0.1,0.1-0.2,0.21-0.3,0.31
		c-0.08,0.09-0.17,0.18-0.25,0.27c-0.11,0.11-0.22,0.23-0.32,0.34c-0.08,0.08-0.16,0.17-0.24,0.25c-0.12,0.13-0.24,0.25-0.36,0.38
		c-0.07,0.07-0.14,0.15-0.21,0.22c-0.13,0.14-0.27,0.29-0.41,0.43c-0.06,0.07-0.13,0.14-0.19,0.2c-0.12,0.13-0.24,0.25-0.36,0.38
		c-0.11,0.11-0.21,0.23-0.32,0.34l-0.48,0.51c-0.13-0.11-0.25-0.21-0.37-0.31c-0.01-0.01-0.03-0.02-0.04-0.03
		c-0.02-0.02-0.04-0.04-0.06-0.05c-0.09-0.07-0.17-0.15-0.26-0.22c-0.02-0.02-0.05-0.04-0.07-0.06c-0.11-0.09-0.22-0.19-0.33-0.28
		c-0.04-0.03-0.07-0.06-0.11-0.09c-0.04-0.03-0.08-0.07-0.12-0.1c-0.05-0.04-0.1-0.09-0.16-0.13c-0.03-0.03-0.07-0.06-0.1-0.09
		c-0.06-0.05-0.11-0.1-0.17-0.15c-0.03-0.02-0.06-0.05-0.09-0.07c-0.09-0.07-0.18-0.15-0.27-0.22c0.03-0.04,0.07-0.07,0.1-0.11
		c0.02-0.02,0.04-0.04,0.06-0.06c0.07-0.07,0.14-0.14,0.2-0.21c-0.15-0.13-0.3-0.25-0.45-0.38c1.67-1.72,3.29-3.37,4.98-5.11
		c0.62,0.6,1.21,1.18,1.93,1.88c-0.11,0.12-0.22,0.23-0.34,0.35c0.04,0.04,0.07,0.07,0.11,0.11l0.31,0.3
		C70.81,49.04,70.63,49.22,70.46,49.41z"/>
</g>
</svg>
