<?xml version="1.0" encoding="utf-8"?>
<!-- Generator: Adobe Illustrator 23.0.4, SVG Export Plug-In . SVG Version: 6.00 Build 0)  -->
<svg version="1.1" id="Layer_1" xmlns="http://www.w3.org/2000/svg" xmlns:xlink="http://www.w3.org/1999/xlink" x="0px" y="0px"
	 viewBox="0 0 100 100" style="enable-background:new 0 0 100 100;" xml:space="preserve">
<style type="text/css">
	.st0{fill:#FFFFFF;}
	.st1{fill:#ED332D;}
</style>
<g>
	<path d="M-1372.6,77.8c1,0.6,1.7,0.9,2.3,1.3c25.2,16.3,50.4,32.5,75.5,48.9c47.6,31.1,95.2,62.3,142.8,93.5
		c32.5,21.3,65,42.8,97.6,64c47.3,30.7,94.8,61.2,142.1,91.9c19.8,12.8,39.4,25.9,59.1,38.8c1.7,1.1,1.9,2.1,0.8,3.8
		c-9.8,15.8-19.6,31.6-29.2,47.4c-9.6,15.7-18.4,32-28.8,47.1c-13.4,19.5-28.1,38.1-42.1,57.1c-31.8,43.1-63.4,86.3-95.5,129.2
		c-25.6,34.3-48.9,70.1-68.7,108.1c-10.9,21-20.8,42.6-31.2,64c-7.4,15.2-14.7,30.5-22,45.7c-2.4,5.1-4.9,10.2-7.2,15.4
		c-0.9,2.1-1.9,2.2-3.7,0.9c-32.6-22.3-65.2-44.6-97.8-66.9c-60.2-41.1-120.4-82.3-180.6-123.4c-33-22.6-66-45.2-99-67.8
		c-49.3-33.9-98.6-67.7-147.9-101.6c-1.6-1.1-2.9-1.8-1.4-4.3c13.6-22.2,27.1-44.5,40.6-66.9c11.3-18.8,24.7-36.2,38-53.6
		c34.3-44.6,68.7-89.2,103.1-133.8c21.5-28,43.3-55.8,64.5-84c17.7-23.4,33.5-48.2,47.3-74.1c13.7-25.7,26.3-52,39.4-78
		C-1373.9,79.7-1373.3,78.8-1372.6,77.8z M-1200.4,863.1c0.4-0.5,1-1,1.3-1.6c2.6-5.1,5.2-10.3,7.7-15.4
		c11.2-23.1,22-46.4,33.7-69.2c18.6-36.2,40.3-70.4,64.4-103.1c41.4-56.2,83.1-112.2,124.6-168.4c13-17.5,26.6-34.6,37-53.9
		c4.9-9.2,10-18.3,15.1-27.3c0.9-1.7,0.4-2.5-1.1-3.4c-9.3-6-18.6-12.1-27.9-18.1c-43-28.1-86.1-56.3-129.1-84.4
		c-34-22.2-67.9-44.4-101.9-66.6c-45.9-30-91.8-60-137.6-90c-14.3-9.3-28.6-18.6-42.9-28c-2.1-1.4-2.9-1-3.8,1.2
		c-1.5,3.7-3.2,7.3-4.9,10.9c-19.6,40.8-44.1,78.6-71.2,114.7c-18.7,24.8-38.2,49-57.2,73.6c-34,44-67.9,87.9-101.8,132
		c-13.5,17.6-27.6,34.9-38.6,54.4c-5.7,10.1-11.4,20.2-17,30.3c-0.4,0.7-0.6,2.1-0.2,2.5c1.3,1.4,2.8,2.6,4.4,3.6
		c37.3,25.6,74.6,51.2,111.9,76.8c53.8,36.9,107.6,73.8,161.4,110.7c22.5,15.4,45,30.8,67.4,46.2c34.7,23.8,69.4,47.6,104.1,71.4
		C-1201.9,862.3-1201.3,862.6-1200.4,863.1z"/>
	<path d="M-962,435.4c-1,2-1.9,3.8-2.9,5.5c-17.5,31.1-40.8,58.2-62,86.7c-26.8,35.9-54.5,71.2-81.3,107.1
		c-27.5,36.7-53.6,74.4-76.7,114c-8,13.8-15.4,27.8-23.1,41.8c-3.3,6-6.6,11.9-9.9,17.9c-1,1.8-1.9,0.7-2.8,0.1
		c-5.6-3.8-11.1-7.6-16.7-11.5c-22.5-15.5-45-31-67.5-46.5c-51.2-35.2-102.4-70.5-153.6-105.7c-27.2-18.7-54.4-37.4-81.6-56.1
		c-19.8-13.6-39.5-27.2-59.3-40.8c-1.4-1-3-1.8-4.5-2.6c-2-1.1-2.5-2.4-1.4-4.7c7.9-15,17.4-29,27.8-42.3
		c19.5-24.8,38.6-49.7,57.9-74.6c27.8-35.8,55.9-71.3,83.2-107.5c17.3-22.9,33.4-46.6,49.9-70c13.3-18.9,26.4-37.8,39.6-56.8
		c0.8-1.2,1-2.9,1.5-4.4c0.2-0.5,0.2-1.1,0.2-1.7c0.6,0.2,1.3,0.3,1.8,0.6c4.8,3.1,9.6,6.3,14.4,9.4c34.1,22.5,68.1,45,102.3,67.4
		c47,30.9,94.1,61.7,141.1,92.6c35.2,23.2,70.4,46.4,105.6,69.6c5.3,3.5,10.6,7,15.9,10.5C-963.3,434-962.7,434.7-962,435.4z
		 M-1300.1,583.7L-1300.1,583.7c0.4-0.7,0.8-1.5,1.3-2.1c19.4-23.8,38.9-47.6,58.3-71.4c22.6-27.8,44.9-55.8,67.7-83.4
		c9.7-11.8,18-24.7,29.6-34.8c1.4-1.2,0.9-1.8-0.4-2.5c-4.1-2.3-8.3-4.7-12.3-7.2c-17.3-11-34.6-22-51.9-33
		c-1.3-0.8-2.1-1.5-3.5,0.2c-21.3,26-42.4,52-63.9,77.8c-17.1,20.5-34.7,40.4-51.8,60.8c-17,20.3-34,40.6-50.3,61.5
		c-11.3,14.4-21.5,29.7-32.1,44.6c-0.4,0.6-0.7,2-0.4,2.4c1.1,1.2,2.5,2.2,3.9,3.1c19,13.1,38,26.2,56.9,39.4c1.7,1.2,2.5,1,3.8-0.5
		c12.3-15.2,24.7-30.4,37.1-45.5C-1305.5,589.8-1302.8,586.8-1300.1,583.7z M-1245.3,321.8c-0.6-0.5-1.1-1-1.7-1.4
		c-23.9-14-47.9-28-71.8-42c-1.7-1-2.4-0.5-3.4,0.8c-22.2,29.6-45.5,58.3-69.3,86.6c-20.9,24.8-41.6,49.7-62.3,74.6
		c-21.9,26.4-42.7,53.7-62.5,81.7c-2.4,3.4-2.4,3.5,1.4,5.4c0.5,0.3,1,0.6,1.5,0.9c20.6,12.4,41.3,24.8,61.9,37.3
		c2,1.2,3.2,0.8,4.6-1c4.9-6.1,9.9-12.1,14.9-18.2c18.7-22.7,37.4-45.3,56.2-68c15.5-18.7,31-37.5,46.5-56.2
		c16.6-20.1,33.2-40.2,49.9-60.2c10.9-13.1,22.1-26,33.1-39C-1246.2,322.8-1245.9,322.4-1245.3,321.8z M-1198.3,648.2
		c-0.8-0.6-1.5-1.4-2.3-1.9c-20.6-14.1-41.3-28.1-61.9-42.3c-1.9-1.3-2.7-0.7-3.8,0.8c-6.8,9.2-13.7,18.3-20.4,27.5
		c-7.9,10.7-15.7,21.6-23.4,32.4c-0.5,0.7-0.7,2.2-0.3,2.6c1.7,1.7,3.6,3.2,5.6,4.5c20.1,13.5,40.3,26.9,60.4,40.5
		c2,1.4,3,1.1,4.3-0.9c13-19.4,26-38.7,39-58.1C-1200.1,651.8-1199.3,650.2-1198.3,648.2z M-1179.1,601.3c2.5-0.3,5.1-0.4,7.6-0.8
		c24.1-3.9,39.2-25.7,33.2-49.7c-4.9-19.9-24.9-29.5-41.3-28.3c-10.5,0.8-19.8,4.8-27.5,11.8c-15.2,13.8-17,29.5-9.7,44.5
		C-1209.3,594.3-1195.7,600.5-1179.1,601.3z M-1047,456.8c-0.5-0.4-1-0.9-1.6-1.4c-7.4-5.3-14.4-11-20.2-18.1
		c-1.4-1.7-2.1-0.7-3,0.5c-9.3,12.3-18.6,24.5-28,36.7c-5.7,7.4-11.6,14.6-17.3,22c-0.5,0.7-0.8,2.2-0.5,2.7
		c1.6,1.9,3.2,3.9,5.2,5.4c5.5,4.2,11.2,8.2,16.7,12.2c1.4,1,2.5,0.9,3.6-0.5c14-18.2,28.1-36.4,42.1-54.6
		C-1048.8,460.2-1048.1,458.5-1047,456.8z M-1084.4,429.4c-0.8-0.5-1.4-1-2.1-1.5c-7.5-4.7-15-9.3-22.4-14.1c-1.5-1-2.2-0.6-3.3,0.7
		c-11.1,13.4-22.2,26.7-33.3,40.1c-4,4.9-8.1,9.7-12.1,14.6c-0.6,0.8-1.7,1.5-0.2,2.6c7.2,5.3,14.5,10.7,21.6,16.1
		c1.6,1.2,2.7,1,3.9-0.5c6.5-7.8,13.1-15.5,19.5-23.4c9.1-11,18.1-22.2,27.1-33.3C-1085.1,430.4-1084.9,430-1084.4,429.4z"/>
</g>
<g>
	<path class="st0" d="M-828.4,306.6c-0.9-0.5-1.5-0.8-2-1.2c-34.7-23.8-69.4-47.6-104.1-71.4c-22.5-15.4-45-30.8-67.4-46.2
		c-53.8-36.9-107.6-73.8-161.4-110.7c-37.3-25.6-74.6-51.2-111.9-76.8c-1.6-1.1-3.1-2.3-4.4-3.6c-0.4-0.4-0.2-1.8,0.2-2.5
		c5.6-10.1,11.3-20.2,17-30.3c11-19.5,25-36.8,38.6-54.4c33.8-44.1,67.8-88.1,101.8-132c19-24.6,38.5-48.8,57.2-73.6
		c27.2-36.1,51.6-73.9,71.2-114.7c1.7-3.6,3.4-7.2,4.9-10.9c0.9-2.2,1.7-2.5,3.8-1.2c14.3,9.4,28.6,18.7,42.9,28
		c45.9,30,91.8,60,137.6,90c34,22.2,67.9,44.4,101.9,66.6c43,28.1,86.1,56.3,129.1,84.4c9.3,6.1,18.6,12.1,27.9,18.1
		c1.4,0.9,2,1.7,1.1,3.4c-5.1,9.1-10.1,18.2-15.1,27.3c-10.4,19.3-24.1,36.4-37,53.9C-638.2,5-679.8,61.1-721.3,117.3
		c-24.1,32.7-45.8,67-64.4,103.1c-11.7,22.8-22.5,46.1-33.7,69.2c-2.5,5.2-5.1,10.3-7.7,15.4C-827.4,305.6-827.9,306.1-828.4,306.6z
		 M-589.9-121.1c-0.8-0.7-1.3-1.4-2.1-1.8c-5.3-3.5-10.6-7-15.9-10.5c-35.2-23.2-70.4-46.4-105.6-69.6
		c-47-30.9-94.1-61.7-141.1-92.6c-34.1-22.4-68.2-45-102.3-67.4c-4.8-3.2-9.6-6.3-14.4-9.4c-0.5-0.3-1.2-0.4-1.8-0.6
		c-0.1,0.6-0.1,1.1-0.2,1.7c-0.4,1.5-0.6,3.2-1.5,4.4c-13.1,19-26.3,38-39.6,56.8c-16.5,23.4-32.7,47.1-49.9,70
		c-27.3,36.1-55.5,71.7-83.2,107.5c-19.3,24.9-38.5,49.9-57.9,74.6c-10.5,13.3-20,27.3-27.8,42.3c-1.2,2.3-0.7,3.6,1.4,4.7
		c1.5,0.8,3.1,1.6,4.5,2.6c19.8,13.6,39.5,27.2,59.3,40.8c27.2,18.7,54.4,37.4,81.6,56.1c51.2,35.2,102.4,70.5,153.6,105.7
		c22.5,15.5,45,31,67.5,46.5c5.6,3.8,11.1,7.7,16.7,11.5c0.9,0.6,1.8,1.7,2.8-0.1c3.3-6,6.6-11.9,9.9-17.9
		c7.7-13.9,15.1-28,23.1-41.8c23.1-39.7,49.2-77.3,76.7-114c26.8-35.9,54.5-71.2,81.3-107.1c21.3-28.5,44.5-55.6,62-86.7
		C-591.8-117.3-590.9-119.1-589.9-121.1z"/>
	<path class="st0" d="M-873.3-234.8c-0.5,0.6-0.8,1-1.2,1.4c-11,13-22.2,25.9-33.1,39c-16.7,20-33.3,40.1-49.9,60.2
		c-15.5,18.7-31,37.5-46.5,56.2c-18.7,22.7-37.4,45.3-56.2,68c-5,6-10,12-14.9,18.2c-1.4,1.8-2.6,2.2-4.6,1
		c-20.6-12.5-41.2-24.8-61.9-37.3c-0.5-0.3-1-0.6-1.5-0.9c-3.8-2-3.8-2-1.4-5.4c19.8-28,40.6-55.3,62.5-81.7
		c20.7-24.9,41.4-49.8,62.3-74.6c23.8-28.3,47.2-56.9,69.3-86.6c1-1.4,1.8-1.8,3.4-0.8c23.9,14.1,47.9,28,71.8,42
		C-874.4-235.8-873.9-235.3-873.3-234.8z"/>
	<path class="st0" d="M-928.1,27.2c-2.7,3.1-5.4,6.1-8,9.2c-12.4,15.1-24.8,30.3-37.1,45.5c-1.3,1.6-2.1,1.7-3.8,0.5
		c-18.9-13.2-38-26.3-56.9-39.4c-1.4-0.9-2.7-1.9-3.9-3.1c-0.3-0.4-0.1-1.8,0.4-2.4c10.6-14.9,20.8-30.2,32.1-44.6
		c16.3-20.8,33.3-41.2,50.3-61.5c17.1-20.4,34.8-40.4,51.8-60.8c21.5-25.8,42.7-51.8,63.9-77.8c1.4-1.7,2.2-1,3.5-0.2
		c17.3,11,34.5,22.1,51.9,33c4,2.5,8.2,4.8,12.3,7.2c1.3,0.7,1.8,1.4,0.4,2.5c-11.6,10.1-19.9,23.1-29.6,34.8
		c-22.8,27.6-45.1,55.6-67.7,83.4c-19.4,23.8-38.9,47.6-58.3,71.4C-927.3,25.7-927.6,26.5-928.1,27.2L-928.1,27.2z"/>
	<path class="st0" d="M-826.2,91.7c-1,1.9-1.8,3.6-2.8,5.1c-13,19.4-26.1,38.7-39,58.1c-1.3,2-2.3,2.3-4.3,0.9
		c-20.1-13.5-40.3-27-60.4-40.5c-2-1.3-3.9-2.8-5.6-4.5c-0.4-0.4-0.1-2,0.3-2.6c7.7-10.8,15.5-21.7,23.4-32.4
		c6.7-9.2,13.6-18.3,20.4-27.5c1.1-1.5,1.9-2.1,3.8-0.8c20.6,14.1,41.3,28.2,61.9,42.3C-827.7,90.3-827,91.1-826.2,91.7z"/>
	<path class="st0" d="M-807,44.8c-16.6-0.9-30.2-7-37.7-22.4c-7.3-15-5.5-30.8,9.7-44.5c7.8-7,17.1-11,27.5-11.8
		c16.5-1.2,36.4,8.4,41.3,28.3c5.9,24-9.2,45.8-33.2,49.7C-802,44.4-804.5,44.5-807,44.8z"/>
	<path class="st0" d="M-675-99.8c-1,1.8-1.8,3.5-2.9,4.9c-14,18.2-28.1,36.4-42.1,54.6c-1.1,1.4-2.2,1.6-3.6,0.5
		c-5.6-4.1-11.2-8-16.7-12.2c-2-1.5-3.7-3.4-5.2-5.4c-0.4-0.5,0-2,0.5-2.7c5.7-7.4,11.6-14.6,17.3-22c9.4-12.2,18.7-24.5,28-36.7
		c0.9-1.2,1.6-2.1,3-0.5c5.8,7.1,12.8,12.8,20.2,18.1C-676-100.7-675.5-100.2-675-99.8z"/>
	<path class="st0" d="M-712.4-127.2c-0.4,0.6-0.7,1-1,1.4c-9,11.1-18,22.2-27.1,33.3C-747-84.7-753.6-77-760-69.2
		c-1.2,1.5-2.3,1.8-3.9,0.5c-7.2-5.4-14.4-10.8-21.6-16.1c-1.5-1.1-0.5-1.8,0.2-2.6c4-4.9,8-9.8,12.1-14.6
		c11.1-13.4,22.2-26.7,33.3-40.1c1-1.2,1.7-1.6,3.3-0.7c7.4,4.8,14.9,9.4,22.4,14.1C-713.8-128.2-713.1-127.7-712.4-127.2z"/>
	<path class="st0" d="M-928,27.2C-928,27.2-928.1,27.2-928,27.2C-928.1,27.2-928,27.2-928,27.2z"/>
</g>
<path class="st0" d="M71.1,29.2c-1.6-1-3.2-2.1-4.9-3.1c-3.9-2.4-7.8-4.9-11.7-7.3c-2.7-1.7-5.3-3.4-8-5.1c-3.9-2.5-7.8-5-11.7-7.5
	c-2.1-1.3-4.1-2.6-6.2-3.9c-0.1,0-0.1-0.1-0.2-0.1c-0.1,0.1-0.1,0.2-0.1,0.2c-1.1,2.1-2.1,4.2-3.2,6.2c-1.1,2.1-2.4,4-3.9,5.9
	c-1.7,2.2-3.5,4.5-5.3,6.7C13,24.8,10.1,28.4,7.3,32c-1.1,1.4-2.2,2.8-3.1,4.3C3.1,38,2,39.8,0.9,41.6c-0.1,0.2,0,0.3,0.1,0.3
	C5,44.6,9.1,47.3,13.1,50c2.7,1.8,5.4,3.6,8.1,5.4c4.9,3.3,9.9,6.6,14.8,9.8c2.7,1.8,5.4,3.6,8,5.3c0.2,0.1,0.2,0.1,0.3-0.1
	c0.2-0.4,0.4-0.8,0.6-1.2c0.6-1.2,1.2-2.4,1.8-3.6c0.8-1.7,1.7-3.4,2.6-5.1c1.6-3,3.5-5.9,5.6-8.6c2.6-3.4,5.2-6.9,7.8-10.3
	c1.2-1.5,2.4-3,3.5-4.6c0.9-1.2,1.6-2.5,2.4-3.8c0.8-1.3,1.6-2.5,2.4-3.8C71.2,29.4,71.2,29.3,71.1,29.2z"/>
<path class="st1" d="M43.1,37.6c-0.7,0.1-1.4,0.3-2,0.8c-1.1,1-1.2,2.1-0.7,3.2c0.5,1.1,1.5,1.5,2.7,1.6c0.2,0,0.4,0,0.5-0.1
	c1.7-0.3,2.8-1.8,2.4-3.5C45.7,38.2,44.3,37.5,43.1,37.6z"/>
<path class="st1" d="M37.2,43.4c-0.1-0.1-0.2-0.1-0.3,0.1c-0.5,0.7-1,1.3-1.4,1.9c-0.6,0.8-1.1,1.5-1.7,2.3c0,0-0.1,0.2,0,0.2
	c0.1,0.1,0.3,0.2,0.4,0.3c1.4,1,2.9,1.9,4.3,2.9c0.1,0.1,0.2,0.1,0.3-0.1c0.9-1.4,1.8-2.7,2.8-4.1c0.1-0.1,0.1-0.2,0.2-0.4
	c-0.1,0-0.1-0.1-0.2-0.1C40.2,45.4,38.7,44.4,37.2,43.4z"/>
<path class="st1" d="M32.5,30.5c1.2-1.4,2.4-2.9,3.5-4.3c0.8-0.9,1.6-1.8,2.3-2.8c0,0,0-0.1,0.1-0.1c0,0-0.1-0.1-0.1-0.1
	c-1.7-1-3.4-2-5.1-3c-0.1-0.1-0.2,0-0.2,0.1c-1.6,2.1-3.2,4.1-4.9,6.1c-1.5,1.8-3,3.5-4.4,5.3c-1.6,1.9-3,3.8-4.4,5.8
	c-0.2,0.2-0.2,0.2,0.1,0.4c0,0,0.1,0,0.1,0.1c1.5,0.9,2.9,1.8,4.4,2.6c0.1,0.1,0.2,0.1,0.3-0.1c0.3-0.4,0.7-0.9,1.1-1.3
	c1.3-1.6,2.7-3.2,4-4.8C30.3,33.1,31.4,31.8,32.5,30.5z"/>
<path class="st1" d="M90.2,40.6l9.1-4.3L90.1,32l8.3-5.6l-9.7-2.8l7.4-6.9l-10-1.3l6.2-8l-10,0.4L86.6,0h-4.8l-4.6,0.9L77.6,0H0
	v77.9l0.3-0.1L0,79.2v7.6l7.2-4L6.9,93l8-6.2l1.3,10l6.9-7.4l2.8,9.7l5.6-8.3l4.3,9.1l4.3-9.1l5.6,8.3l2.8-9.7l6.9,7.4l1.2-10l8,6.2
	l-0.3-10.1l8.8,4.8l-1.9-9.9l9.5,3.4l-3.4-9.5l9.9,1.9l-4.9-8.8l10.1,0.3l-6.2-8l10-1.2L88.8,49l9.7-2.8L90.2,40.6z M66.3,30.3
	c-0.7,1.1-1.4,2.2-2.1,3.4c-0.7,1.1-1.3,2.3-2,3.3c-0.9,1.4-2,2.7-3,4.1c-2.3,3.1-4.5,6.1-6.8,9.2c-1.8,2.4-3.5,5-4.9,7.7
	c-0.8,1.5-1.5,3-2.2,4.5c-0.5,1.1-1,2.2-1.6,3.2c-0.2,0.4-0.3,0.7-0.5,1.1c-0.1,0.2-0.1,0.2-0.3,0.1c-2.3-1.6-4.6-3.2-6.9-4.7
	c-4.3-2.9-8.5-5.8-12.8-8.8c-2.3-1.6-4.7-3.2-7-4.8c-3.5-2.4-7-4.8-10.5-7.2c-0.1-0.1-0.2-0.1-0.1-0.3c1-1.6,1.9-3.2,2.9-4.7
	c0.8-1.3,1.7-2.6,2.7-3.8c2.4-3.2,4.9-6.3,7.3-9.5c1.5-2,3.1-4,4.6-6c1.3-1.7,2.4-3.4,3.4-5.3c1-1.8,1.9-3.7,2.8-5.5
	c0-0.1,0.1-0.1,0.1-0.2c0.1,0,0.1,0.1,0.2,0.1c1.8,1.2,3.6,2.3,5.4,3.5c3.4,2.2,6.8,4.4,10.1,6.6c2.3,1.5,4.6,3,6.9,4.5
	c3.4,2.2,6.7,4.3,10.1,6.5c1.4,0.9,2.8,1.8,4.2,2.8C66.4,30.1,66.4,30.2,66.3,30.3z"/>
<path class="st1" d="M34.6,41.9L34.6,41.9c0-0.1,0.1-0.1,0.1-0.2c1.4-1.7,2.8-3.4,4.1-5.1c1.6-2,3.2-4,4.8-5.9
	c0.7-0.8,1.3-1.8,2.1-2.5c0.1-0.1,0.1-0.1,0-0.2c-0.3-0.2-0.6-0.3-0.9-0.5c-1.2-0.8-2.5-1.6-3.7-2.3c-0.1-0.1-0.2-0.1-0.2,0
	c-1.5,1.8-3,3.7-4.5,5.5c-1.2,1.5-2.5,2.9-3.7,4.3c-1.2,1.4-2.4,2.9-3.6,4.4c-0.8,1-1.5,2.1-2.3,3.2c0,0,0,0.1,0,0.2
	C26.9,42.9,27,43,27,43c1.3,0.9,2.7,1.9,4,2.8c0.1,0.1,0.2,0.1,0.3,0c0.9-1.1,1.8-2.2,2.6-3.2C34.2,42.3,34.4,42.1,34.6,41.9z"/>
<path class="st1" d="M51,31.5c-0.1-0.1-0.1-0.1-0.2,0c-0.7,0.9-1.3,1.7-2,2.6c-0.4,0.5-0.8,1-1.2,1.6c0,0-0.1,0.2,0,0.2
	c0.1,0.1,0.2,0.3,0.4,0.4c0.4,0.3,0.8,0.6,1.2,0.9c0.1,0.1,0.2,0.1,0.3,0c1-1.3,2-2.6,3-3.9c0.1-0.1,0.1-0.2,0.2-0.3
	c0,0-0.1-0.1-0.1-0.1C51.9,32.4,51.4,32,51,31.5z"/>
<path class="st1" d="M49.8,31C49.8,31,49.8,31,49.8,31c0-0.1,0-0.2-0.1-0.2c-0.5-0.3-1.1-0.7-1.6-1c-0.1-0.1-0.2,0-0.2,0
	c-0.8,1-1.6,1.9-2.4,2.8c-0.3,0.3-0.6,0.7-0.9,1c0,0.1-0.1,0.1,0,0.2c0.5,0.4,1,0.8,1.5,1.1c0.1,0.1,0.2,0.1,0.3,0
	c0.5-0.6,0.9-1.1,1.4-1.7C48.5,32.6,49.2,31.8,49.8,31z"/>
<path class="st1" d="M59.7,29.1c-3.1-2-6.1-4-9.2-6c-2.4-1.6-4.8-3.2-7.2-4.7c-3.3-2.1-6.5-4.3-9.8-6.4c-1-0.7-2-1.3-3-2
	c-0.1-0.1-0.2-0.1-0.3,0.1c-0.1,0.3-0.2,0.5-0.4,0.8c-1.4,2.9-3.1,5.6-5.1,8.1c-1.3,1.8-2.7,3.5-4.1,5.2c-2.4,3.1-4.8,6.2-7.2,9.4
	c-1,1.3-2,2.5-2.7,3.9c-0.4,0.7-0.8,1.4-1.2,2.2c0,0,0,0.1,0,0.2c0.1,0.1,0.2,0.2,0.3,0.3c2.6,1.8,5.3,3.6,7.9,5.5
	c3.8,2.6,7.6,5.2,11.5,7.9c1.6,1.1,3.2,2.2,4.8,3.3c2.5,1.7,4.9,3.4,7.4,5.1c0,0,0.1,0,0.1,0.1c0,0,0.1-0.1,0.1-0.1
	c0.2-0.4,0.4-0.7,0.5-1.1c0.8-1.6,1.6-3.3,2.4-4.9c1.3-2.6,2.9-5,4.6-7.3c2.9-4,5.9-8,8.8-12c0.9-1.2,1.9-2.5,2.6-3.8
	c0.4-0.7,0.7-1.3,1.1-1.9c0.1-0.1,0-0.2-0.1-0.2C61,29.9,60.4,29.5,59.7,29.1z M58.4,31.8c-1.2,2.2-2.9,4.1-4.4,6.2
	c-1.9,2.5-3.9,5.1-5.8,7.6c-1.9,2.6-3.8,5.3-5.4,8.1c-0.6,1-1.1,2-1.6,3c-0.2,0.4-0.5,0.8-0.7,1.3c-0.1,0.1-0.1,0-0.2,0
	c-0.4-0.3-0.8-0.5-1.2-0.8c-1.6-1.1-3.2-2.2-4.8-3.3c-3.6-2.5-7.3-5-10.9-7.5c-1.9-1.3-3.9-2.7-5.8-4c-1.4-1-2.8-1.9-4.2-2.9
	c-0.1-0.1-0.2-0.1-0.3-0.2c-0.1-0.1-0.2-0.2-0.1-0.3c0.6-1.1,1.2-2.1,2-3c1.4-1.8,2.7-3.5,4.1-5.3c2-2.5,4-5.1,5.9-7.6
	c1.2-1.6,2.4-3.3,3.5-5c0.9-1.3,1.9-2.7,2.8-4c0.1-0.1,0.1-0.2,0.1-0.3c0,0,0-0.1,0-0.1c0,0,0.1,0,0.1,0c0.3,0.2,0.7,0.4,1,0.7
	c2.4,1.6,4.8,3.2,7.3,4.8c3.3,2.2,6.7,4.4,10,6.6c2.5,1.6,5,3.3,7.5,4.9c0.4,0.2,0.8,0.5,1.1,0.7c0.1,0,0.1,0.1,0.1,0.1
	C58.5,31.5,58.4,31.7,58.4,31.8z"/>
</svg>
