<svg id="Layer_1" data-name="Layer 1" xmlns="http://www.w3.org/2000/svg" viewBox="0 0 187.08 33.06"><title>ig</title><path d="M160.83,0H29.34A26.3,26.3,0,0,0,3.08,26.26v6.8h184v-6.8A26.28,26.28,0,0,0,160.83,0Z" style="fill:#341a4b"/><path d="M180.09,35.06H2.09v-3.8A23.26,23.26,0,0,1,25.35,8H156.83a23.26,23.26,0,0,1,23.26,23.26h0Z" style="fill:#fff"/><path d="M182.09,37.06H.09v-5.8A25.3,25.3,0,0,1,25.35,6H156.83a25.29,25.29,0,0,1,25.26,25.26Zm-178-4h174v-1.8A21.29,21.29,0,0,0,156.83,10H25.34A21.3,21.3,0,0,0,4.08,31.26Z" style="fill:#010101"/><path d="M34.59,16c4.43,0,7,2.84,7,6.63,0,2.07-1,4.68-3.72,4.68A1.88,1.88,0,0,1,36,26.06h-.13a2.31,2.31,0,0,1-2.09,1.22,3,3,0,0,1-2.9-3.1c0-.06,0-.12,0-.18a3.13,3.13,0,0,1,2.94-3.31h0a2.78,2.78,0,0,1,1.93,1c.14-.31.24-.82.53-.82h.64a.28.28,0,0,1,.3.28v2.66c0,1.37.47,1.54.88,1.54.93,0,1.32-1.44,1.32-2.59,0-2.72-1.62-4.77-4.9-4.77s-5.45,2.18-5.45,5.67a5.7,5.7,0,0,0,3.61,5.23.3.3,0,0,1,.19.36l-.47,1.29a.27.27,0,0,1-.32.2h0a7.55,7.55,0,0,1-5-7.07A7.33,7.33,0,0,1,34,16,5.61,5.61,0,0,1,34.59,16Zm-.65,9.29a1.22,1.22,0,0,0,1.11-1.34h0A1.2,1.2,0,0,0,34,22.57h-.1c-.68,0-1.1.61-1.1,1.37a1.2,1.2,0,0,0,1.06,1.32Z" style="fill:#010101"/><path d="M41.94,25.73l1.07-1a.29.29,0,0,1,.41,0h0a1,1,0,0,0,.8.33c.44,0,.93-.41.93-1.19V16.43a.3.3,0,0,1,.3-.3h1.92a.29.29,0,0,1,.3.3v7.41a3.26,3.26,0,0,1-3.07,3.44H44.3a3,3,0,0,1-2.39-1.15A.33.33,0,0,1,41.94,25.73Z" style="fill:#010101"/><path d="M50.14,16.43a.3.3,0,0,1,.3-.3h6.5a.29.29,0,0,1,.3.3v1.71a.29.29,0,0,1-.3.3H52.59v2h3.58a.31.31,0,0,1,.3.3v1.69a.29.29,0,0,1-.3.3H52.59v2.12h4.35a.29.29,0,0,1,.3.3v1.71a.29.29,0,0,1-.3.3H50.49a.3.3,0,0,1-.3-.3Z" style="fill:#010101"/><path d="M59.34,16.43a.3.3,0,0,1,.3-.3h4.69a3.41,3.41,0,0,1,3.42,3.39,3.44,3.44,0,0,1-2.32,3.16l2.15,4a.29.29,0,0,1-.09.41.27.27,0,0,1-.18.05H65.22A.29.29,0,0,1,65,27l-2.09-4.16H61.8v4a.31.31,0,0,1-.3.3H59.63a.3.3,0,0,1-.3-.3V16.43Zm4.79,4.4a1.26,1.26,0,0,0,1.19-1.26,1.2,1.2,0,0,0-1.19-1.19H61.81v2.45Z" style="fill:#010101"/><path d="M69.86,16.43a.3.3,0,0,1,.3-.3h6.5a.29.29,0,0,1,.3.3v1.71a.29.29,0,0,1-.3.3H72.31v2h3.58a.31.31,0,0,1,.3.3v1.69a.29.29,0,0,1-.3.3H72.31v2.12h4.35a.29.29,0,0,1,.3.3v1.71a.29.29,0,0,1-.3.3h-6.5a.3.3,0,0,1-.3-.3Z" style="fill:#010101"/><path d="M80.15,16.22a.31.31,0,0,1,.28-.25h.25a.37.37,0,0,1,.27.16l3.64,6.78h0l3.64-6.78A.37.37,0,0,1,88.5,16h.25a.29.29,0,0,1,.28.25L90.8,26.77a.27.27,0,0,1-.22.34H88.65a.34.34,0,0,1-.3-.25L87.64,22h0L85,27.11a.38.38,0,0,1-.27.17h-.24a.38.38,0,0,1-.27-.17L81.49,22h0l-.69,4.85a.31.31,0,0,1-.3.25H78.65a.28.28,0,0,1-.3-.27v-.08Z" style="fill:#010101"/><path d="M94.66,21.82l-3.47-5.24a.3.3,0,0,1,.07-.41.37.37,0,0,1,.18-.05h2a.31.31,0,0,1,.25.14l2.18,3.22,2.18-3.22a.3.3,0,0,1,.25-.14h2a.29.29,0,0,1,.31.27.31.31,0,0,1-.06.19l-3.52,5.23v5a.31.31,0,0,1-.3.3H94.91a.3.3,0,0,1-.3-.3v-5Z" style="fill:#010101"/><path d="M101.91,16.43a.3.3,0,0,1,.28-.3h4.72a3.41,3.41,0,0,1,3.42,3.39A3.44,3.44,0,0,1,108,22.68l2.15,4a.29.29,0,0,1-.09.41.27.27,0,0,1-.18.05H107.8a.29.29,0,0,1-.25-.14l-2.06-4.18h-1.08v4a.31.31,0,0,1-.3.3h-1.87a.3.3,0,0,1-.3-.3V16.43Zm4.78,4.4a1.26,1.26,0,0,0,1.19-1.26,1.2,1.2,0,0,0-1.19-1.19h-2.32v2.45Z" style="fill:#010101"/><path d="M112.43,16.43a.32.32,0,0,1,.3-.3h1.88a.31.31,0,0,1,.3.3V26.82a.31.31,0,0,1-.3.3h-1.88a.32.32,0,0,1-.3-.3Z" style="fill:#010101"/><path d="M122.49,16a5.31,5.31,0,0,1,3.8,1.46.3.3,0,0,1,0,.42l0,0-1.22,1.27a.27.27,0,0,1-.38,0h0a3.2,3.2,0,0,0-5.32,2.42,3.21,3.21,0,0,0,3.2,3.2,3.33,3.33,0,0,0,2.1-.75.32.32,0,0,1,.41,0l1.22,1.3a.31.31,0,0,1,0,.42,5.37,5.37,0,0,1-3.82,1.52,5.65,5.65,0,1,1,0-11.3h0Z" style="fill:#010101"/><path d="M128.18,16.43a.32.32,0,0,1,.3-.3h1.87a.29.29,0,0,1,.3.3v4h4.49v-4a.3.3,0,0,1,.3-.3h1.87a.31.31,0,0,1,.3.3V26.82a.31.31,0,0,1-.3.3h-1.82a.3.3,0,0,1-.3-.3V22.69H130.7v4.13a.29.29,0,0,1-.3.3h-1.91a.32.32,0,0,1-.3-.3Z" style="fill:#010101"/><path d="M140.31,16.43a.32.32,0,0,1,.3-.3h1.88a.31.31,0,0,1,.3.3V26.82a.31.31,0,0,1-.3.3h-1.88a.32.32,0,0,1-.3-.3Z" style="fill:#010101"/><path d="M145.49,16.43a.3.3,0,0,1,.28-.3h6.52a.29.29,0,0,1,.3.3v1.71a.29.29,0,0,1-.3.3h-4.35v2h3.55a.31.31,0,0,1,.3.3v1.69a.29.29,0,0,1-.3.3h-3.58v2.12h4.35a.29.29,0,0,1,.3.3v1.71a.29.29,0,0,1-.3.3h-6.5a.3.3,0,0,1-.3-.3Z" style="fill:#010101"/></svg>