<svg id="Layer_1" data-name="Layer 1" xmlns="http://www.w3.org/2000/svg" viewBox="0 0 400 200"><title>vortexbg</title><rect x="99.91" y="-99.91" width="200.18" height="400" transform="translate(99.91 300.09) rotate(-90)" style="fill:#f5b21f"/><path d="M269.44,185.55a27.3,27.3,0,0,0,17.7-17c.43-1.14,1-2.27,1.37-3.41a52.25,52.25,0,0,1,16.31-23.41,91.38,91.38,0,0,0,8-7.74c3-3.13,4.95-6.69,5.21-10.57.21-3.26.27-6.5.19-9.69-.17-6-.64-12.06,2.19-18.39,2.08-4.66,4.36-9.27,6.63-13.88,3-6.13,3.57-11.76.62-16.76-1.06-1.78-2.07-3.61-3.22-5.32-3.68-5.42-6.63-11.18-6.17-18.66.17-2.73.13-5.42.39-8.16.8-8.54-2.14-14.54-9.66-17.55-1.19-.48-2.24-1.18-3.44-1.63A27.38,27.38,0,0,1,290.45,0H278.51a16.51,16.51,0,0,1,1.37,2.29c1.36,2.74,2.65,5.53,3.81,8.39a14.22,14.22,0,0,0,8.38,8.2c2.25.88,4.39,2,6.67,2.81,8.24,3,11,9.55,9.8,18.67-.34,2.52-.48,5-.71,7.55-.45,4.82,1.34,8.53,3.86,11.9,1.56,2.1,3.07,4.24,4.48,6.45,3.48,5.47,3.17,11.68-.62,18.56-1.85,3.36-3.58,6.77-5.4,10.15a19.38,19.38,0,0,0-2.46,10.68c.29,4.56.65,9.12.63,13.76,0,5.82-3.39,10.74-8.12,15.09-2,1.87-4.08,3.77-6.28,5.43a32,32,0,0,0-11.86,16.89,75.61,75.61,0,0,1-3.06,7.73c-2.82,6.61-7.86,11-14.54,13.5-3.49,1.34-7,2.58-10.53,3.8a26.31,26.31,0,0,0-11.32,7.68q-3.69,4.16-7.49,8.22c-.75.81-1.52,1.55-2.3,2.25h11.85a52.16,52.16,0,0,1,20.8-12.94C266.8,186.62,268.11,186,269.44,185.55Z" style="fill:none"/><path d="M219.49,161.77c1.35-1.85,2.61-3.77,3.83-5.69a16.87,16.87,0,0,1,12-8.06,48.91,48.91,0,0,0,8.25-1.88,6.41,6.41,0,0,0,3.25-3.07,48,48,0,0,0,1.86-7.82,16.91,16.91,0,0,1,8.14-11.83c2-1.2,3.95-2.42,5.88-3.72,4-2.67,4.5-3.9,3.47-7.69-.47-1.72-.92-3.44-1.48-5.12-1.45-4.4-.38-8.77,3-13.18,1.46-1.9,2.91-3.8,4.29-5.74,2.26-3.2,2.33-4.31.15-6.63-1.55-1.65-3.36-3.06-5-4.62a8.8,8.8,0,0,1-2.77-8.6c.36-1.84.73-3.7,1.28-5.54,2.19-7.36,1.85-8.48-5.16-9.36-7.33-.93-11.56-4.45-12-11.88a16.5,16.5,0,0,0-1-3.94c-.61-1.94-2.13-2.63-4.38-2.12s-4.58,1-6.86,1.69c-5.66,1.64-10,.53-13.08-3.27a30.78,30.78,0,0,0-3.69-3.88c-2.27-1.94-3.58-1.91-6.69.11-2.3,1.49-4.52,3.14-6.77,4.74-4.12,2.94-8.17,3.69-12.23,2.5-2.15-.63-4.33-1.2-6.53-1.73-2.86-.69-4.2-.21-6.27,2.51-1.6,2.1-3,4.33-4.44,6.52-2.81,4.26-6.46,7-11.33,7.86-2.52.42-5.05.86-7.57,1.45-3.32.79-4.5,2-5.27,5.26-.5,2.08-1,4.17-1.32,6.24-.78,5.37-3.79,9.43-8.9,12.4q-2.33,1.35-4.59,2.84c-4.26,2.8-4.9,4.2-3.8,8.24a24.2,24.2,0,0,0,.88,3.08c2.41,5.73.76,11.27-4,17.11-6,7.37-6,8-.08,12.78,4.65,3.74,6.65,8.33,4,14.58-.52,2.28-.92,4-1.3,5.67-.54,2.38.19,4,2.4,4.55a36.76,36.76,0,0,0,4.94,1.07c6.16.73,9.91,3.76,10.53,10a24.6,24.6,0,0,0,.87,4.23c1,3.5,2.17,4.1,6.15,3.14,2-.47,3.95-.95,5.91-1.48,5.25-1.43,9.38-.5,12.37,3,1.33,1.57,2.83,3,4.28,4.45s3.6,1.55,5.89,0,4.82-3.33,7.21-5c4-2.87,8-3.72,12-2.59,2,.57,4.05,1.13,6.1,1.66C215.4,165.87,217,165.24,219.49,161.77ZM207.82,157c-1.88-.67-3.69-1.5-5.54-2.23s-3.52-.43-5.37,1.36a53.5,53.5,0,0,1-6,5c-3.86,2.8-7.22,2.89-9.88.2a33.63,33.63,0,0,1-4-5.23c-1.16-1.77-2.78-2-5.11-1.18a68.42,68.42,0,0,1-8,2.47c-3.57.81-6.08-.49-6.85-3.6a45.17,45.17,0,0,1-1-7.35c-.18-2.25-1.14-3.51-3.61-3.58a38.14,38.14,0,0,1-6.48-.73c-4.61-.95-5.82-3.32-4.62-8.3.8-2.21,1.48-4.45,2.43-6.63s.51-3.58-1-4.63-3.28-2.11-4.77-3.33c-3.77-3.08-3.68-6.65.22-11.32,1.43-1.72,2.93-3.39,4.46-5,1.7-1.81,2.08-3.54,1.24-5.33q-1-2.17-1.95-4.41c-2.16-5.23-.37-9.15,5.69-12.45,1.87-1,3.75-2,5.65-3a4.7,4.7,0,0,0,2.94-4.23A68,68,0,0,1,157.2,66a9.26,9.26,0,0,1,8.41-7.68c2.52-.33,5-.56,7.53-.77a4.65,4.65,0,0,0,3.9-2.76c1.23-2.27,2.43-4.57,3.84-6.77q4.27-6.67,10.73-4.61a45,45,0,0,1,5.74,2.31c1.88.88,3.59.41,5.43-1.23s3.51-3.1,5.36-4.52c4.57-3.5,8.27-3.56,11.32-.14a56.11,56.11,0,0,1,3.68,5c.93,1.33,2.2,1.75,4.12,1,2.34-.87,4.69-1.7,7-2.38,5-1.46,8,0,8.85,4.57a31.9,31.9,0,0,1,.6,5.9c0,2.73,1.5,3.74,4.05,3.88,1.9.1,3.8.23,5.64.49,4.8.69,6.52,3.86,4.85,8.88-.73,2.23-1.55,4.44-2.4,6.65a3.1,3.1,0,0,0,1.2,4.16c1.61,1.09,3.28,2.12,4.77,3.33,3.68,3,3.64,6.61-.11,11.16-1.58,1.92-3.29,3.75-5,5.6-1.38,1.52-1.69,3-1,4.5s1.35,3.07,2,4.61c2.29,5.45.5,9.34-5.88,12.77a58.41,58.41,0,0,0-5.8,3.2,6.07,6.07,0,0,0-2.22,3,33.76,33.76,0,0,0-.76,6c-.54,6.51-4.16,10-10.83,10.43a41,41,0,0,1-4.22.36c-2.9-.13-4.65,1.37-5.93,4a51.18,51.18,0,0,1-3,5.45C216.12,157.08,212.33,158.64,207.82,157Z" style="fill:none"/><path d="M148.58,194.08c-2.6.44-5.18.6-7.76.8-6.46.5-10.44-2.32-12.57-7.54-1.09-2.66-2.18-5.32-3.16-8a10.11,10.11,0,0,0-6.48-6.33c-2.84-1-5.64-2.07-8.42-3.17-6.21-2.46-8.3-7.51-7.37-14.5a86.74,86.74,0,0,0,1.06-10.74,11,11,0,0,0-1.68-5.6,86.61,86.61,0,0,0-5.58-7.42c-3.66-4.79-4.07-10.34-.29-16.88,1.8-3.12,3.57-6.26,5.41-9.37a15.53,15.53,0,0,0,2.33-10.16c-.44-3.39-.9-6.79-1.15-10.24-.38-5.26,1.7-10.09,6.3-14.24a72.43,72.43,0,0,1,7.22-5.91,25.06,25.06,0,0,0,10.33-15,66.43,66.43,0,0,1,2.33-6.64c2.4-6.38,7.12-10.35,13.51-12.5,3-1,6.11-2,9.17-2.91a19.38,19.38,0,0,0,9.68-6.34c2.23-2.72,4.57-5.36,6.87-8,5.36-6.23,11.55-8.6,18.54-7.58a60.58,60.58,0,0,0,9.85,1A19.87,19.87,0,0,0,204.14,5c3.16-1.4,6.2-3.25,9.28-5H200.11a24.38,24.38,0,0,1-7.8.48c-2.05-.22-4.15-.34-6.64-.48h-8.32c-3.08.82-6.29,3-9.23,6.23-2,2.23-4.09,4.44-6.05,6.73a36.35,36.35,0,0,1-16.53,11.23c-3.68,1.2-7.35,2.58-11,4.09a15.6,15.6,0,0,0-8.49,8.45c-1.25,2.85-2.42,5.74-3.41,8.64a36.31,36.31,0,0,1-12,17.5c-2,1.55-3.81,3.28-5.77,4.83C98.73,72.62,96.17,78.26,97.06,85a65.63,65.63,0,0,1,.48,12.66c-.4,6.57-4.66,12.53-7.93,18.61-2.67,5-4,9.71-1.29,13.9,1.52,2.39,3.15,4.7,4.8,7,2.54,3.5,4.57,7.28,4.48,12.12a74,74,0,0,1-.72,9.57c-1.11,7.58,1,13,8,15.26,1.51.48,2.87,1.22,4.36,1.74a20.12,20.12,0,0,1,12.86,12.51,59.28,59.28,0,0,0,3.75,7.93,7.79,7.79,0,0,0,4.07,3.73h14.92a35.11,35.11,0,0,1,5.33,0h16.16a34.84,34.84,0,0,1-3.77-2.93C158.91,193.68,154.11,193.17,148.58,194.08Z" style="fill:none"/><path d="M215.32,176.09a7.78,7.78,0,0,0,6.77-3.19c1.74-2.12,3.46-4.27,5-6.5a23.07,23.07,0,0,1,15-10.06,76.33,76.33,0,0,0,8.25-2.3,7.33,7.33,0,0,0,4.82-4.86,55.12,55.12,0,0,0,2.09-7.15c1.21-6.46,4.84-11.5,10.86-15.36,2.09-1.34,4.09-2.88,6.07-4.41,2.83-2.18,3.9-4.79,3.33-7.71-.46-2.33-.88-4.68-1.43-7-1.19-5,0-9.94,3.57-14.91,1.67-2.36,3.2-4.79,4.7-7.23,1.6-2.61,1.77-5,.12-7s-3.33-3.85-5.12-5.65C276,69.4,275,65,276.27,59.68c.62-2.7,1-5.39,1.43-8.08s-.56-4.48-2.88-5.32a50.52,50.52,0,0,0-6.41-1.93c-6-1.31-9.65-4.69-10.86-10.63a44.31,44.31,0,0,0-2-6.26c-.84-2.27-2.72-3.28-5.39-3a63.37,63.37,0,0,0-6.85,1.19c-6.59,1.52-12,.69-16-3.65a33.35,33.35,0,0,0-5-4.28c-1.81-1.32-4.1-1.37-6.54,0-2.67,1.51-5.32,3.1-7.88,4.82-5.13,3.44-10.18,4.61-15.29,3.34-2.12-.53-4.33-.86-6.5-1.3-3.24-.66-6.17.26-8.63,3.38-1.8,2.29-3.59,4.59-5.28,6.93a22,22,0,0,1-13.43,9c-2.91.65-5.83,1.46-8.73,2.35a7.4,7.4,0,0,0-5.14,4.87c-.83,2.61-1.64,5.22-2.24,7.83A23.18,23.18,0,0,1,132,73.72c-2.16,1.39-4.23,3-6.27,4.56-2.76,2.13-3.9,4.67-3.3,7.57.5,2.39.86,4.84,1.43,7.21,1.15,4.76.08,9.48-3.22,14.26-1.55,2.23-3,4.52-4.54,6.76-2.24,3.28-2.42,6.15-.25,8.55,1.59,1.77,3.23,3.49,4.85,5.23,2.47,2.65,4,5.79,3.33,10-.47,3-1,6-1.63,9-.9,4.7,0,6.5,4.06,8a47.55,47.55,0,0,0,5.65,1.58c5.47,1.21,8.85,4.4,10.07,9.78a62,62,0,0,0,2,6.51c.83,2.44,2.66,3.64,5.6,3.27a39.07,39.07,0,0,0,5.42-.84c7.72-2.12,13.93-1,18.3,4.24a16.42,16.42,0,0,0,2.12,2c3.86,3.24,6,3.26,11.27,0,2.63-1.61,5.19-3.38,7.85-4.91a15.36,15.36,0,0,1,10.85-2.13C208.78,174.93,212.06,175.49,215.32,176.09Zm-20-5.35a70.06,70.06,0,0,1-6.56,4.58c-5,3.06-8.81,3-12.32-.09a51.48,51.48,0,0,1-4.92-5c-1.71-2-4.05-2.32-6.92-1.61-2.45.6-4.89,1.25-7.33,1.75-5.91,1.23-9.4-.75-10.68-6-.49-2-1-4-1.27-6.13-.46-3.2-2.56-4.61-5.64-5.09-1.69-.26-3.36-.58-5-1-6.36-1.43-8.36-5.08-6.57-11.94.4-1.54.86-3.09,1.37-4.62,1.22-3.62.68-6.45-2-8.48a40.08,40.08,0,0,1-4-3.57c-4-4-3.9-8,.17-13.69,1.53-2.15,3.18-4.23,4.76-6.36a7.42,7.42,0,0,0,1.46-6.84,74.72,74.72,0,0,1-2-7.65c-.84-4.45.85-8.07,5.18-11.24a71.49,71.49,0,0,1,6.89-4.51,11.14,11.14,0,0,0,5.89-8.5,59.1,59.1,0,0,1,1.62-7.38c1.47-5,5.14-7.75,10.05-8.9,3-.7,6-1,9-1.94a12.18,12.18,0,0,0,4.64-3.22,49.46,49.46,0,0,0,3.94-5.61c5.34-7.64,9.19-9.24,16.92-7.12,8.18,2.25,7,3.26,16.2-3.52,7.46-5.5,11.88-5.54,17-.28a29,29,0,0,1,2.68,2.86c1.94,2.65,4.74,3.08,8.43,1.94A46.24,46.24,0,0,1,243.84,30c5.18-.7,8,1,9.27,5.57a68.88,68.88,0,0,1,1.54,6.93c.47,2.8,2.2,4.2,5,4.68,2.19.37,4.36.8,6.46,1.37,5.35,1.45,7,4.33,5.89,10.12-.25,1.31-.6,2.63-1.05,4.57-2.62,5.19-.61,8.7,3.31,11.81,6.89,5.48,6.92,9.68,0,18-4.16,5-5.18,9.25-3.36,14.31,3.08,8.56,1.33,12.48-8.21,18-5.7,3.3-8.25,7.17-9.21,12.94-1.69,10.1-4.69,12.68-15.19,14.43-.71.12-1.43.33-2.13.4a10.79,10.79,0,0,0-8.71,5.64,69.51,69.51,0,0,1-4.13,6.1c-3.67,4.9-7.79,6.64-12.94,5.51a52.51,52.51,0,0,1-6.1-1.62C201.21,167.73,198.33,168.37,195.3,170.74Z" style="fill:none"/><path d="M205.72,188.34c3.21.34,6.44.64,9.62,1.08,4.7.65,8.82-.93,12.36-5.17,1.82-2.17,3.7-4.3,5.46-6.51a29,29,0,0,1,15.16-10.31c2.83-.79,5.65-1.75,8.47-2.68a13.42,13.42,0,0,0,9-8.59c.77-2.22,1.59-4.43,2.23-6.66a29.85,29.85,0,0,1,11-16.44c2.83-2.11,5.56-4.4,8.24-6.72a10.7,10.7,0,0,0,4.06-9.25,73.06,73.06,0,0,0-.88-7.62c-1.15-6,.11-11.92,4-17.94,1.36-2.13,2.52-4.35,3.86-6.49,2.85-4.58,3.05-8.61.32-12.07-1.44-1.84-2.87-3.69-4.38-5.48a16.35,16.35,0,0,1-3.77-13.67c.41-2.61.6-5.2,1-7.81.82-5.21-.7-8.87-5.47-10.49-2-.69-4-1.58-6.05-2.19a15.94,15.94,0,0,1-11.21-10.9,64.5,64.5,0,0,0-3.29-7.95c-1.16-2.4-3.37-3.61-6.4-3.43a76.4,76.4,0,0,0-8.2.75c-6.75,1.11-12.64.41-17.24-3.53a61.43,61.43,0,0,0-6.71-4.87c-2.64-1.7-5.82-1.74-9.26,0S210.8,7.1,207.37,9c-4.88,2.68-9.72,3.87-14.59,3.11-3.23-.51-6.53-.8-9.8-1.19-4-.31-7.38,1.55-10.28,4.82-2.28,2.57-4.48,5.21-6.67,7.85a28,28,0,0,1-13.79,9.29c-3.22,1-6.43,2-9.64,3.11a13.11,13.11,0,0,0-8.38,7.94A40.78,40.78,0,0,0,132.48,49c-2,7.9-5.94,14.8-13.54,20a68.08,68.08,0,0,0-6,4.9c-3.45,3-4.93,6.41-4.42,10.26.38,2.82.63,5.68,1,8.48a22.41,22.41,0,0,1-3.39,15.11c-1.73,2.89-3.37,5.81-5.09,8.69-2.28,3.84-2.49,7.29-.34,10.26,1.61,2.23,3.27,4.43,5,6.55a16.27,16.27,0,0,1,3.8,12.57c-.23,2.14-.6,4.29-.88,6.44-1.14,8.68-.39,10.78,7,13.5.94.35,1.89.68,2.87.94,6.85,1.87,11.25,6.06,13.13,12.81a42.61,42.61,0,0,0,2.66,6.39c1.33,2.86,4,3.85,7.39,3.74a35.91,35.91,0,0,0,5.41-.58c8.3-1.58,15.48-.75,20.8,4.52a31.53,31.53,0,0,0,4.7,3.41c3,2,6.45,2,10.3-.07q4.4-2.31,8.73-4.81C196.24,189.34,200.93,187.83,205.72,188.34ZM194.81,182c-2.26,1.56-4.62,3-7,4.38-6.26,3.74-11.07,3.73-15.61,0-1.81-1.5-3.59-3-5.26-4.66-2.19-2.16-5.09-2.55-8.5-1.9-2.52.48-5.05,1-7.57,1.41-6.31,1.09-10.19-.77-12.18-6-1-2.62-1.76-5.38-2.52-8.12s-2.8-4.33-5.61-5.09c-2.65-.72-5.27-1.51-7.86-2.35-4.7-1.53-6.84-5.35-6-10.65.58-3.68,1.43-7.4,1.7-11a7.71,7.71,0,0,0-1.4-4.74c-1.58-2.25-3.66-4.1-5.45-6.19-3.83-4.46-3.85-8.87,0-15,1.47-2.36,3.08-4.67,4.66-7,2.2-3.2,3-6.36,2.2-9.58-.56-2.21-1-4.47-1.4-6.76-1-6.3,1.22-11.07,7.35-15.57,2.43-1.78,4.88-3.55,7.35-5.28a12.86,12.86,0,0,0,5.09-7.56c.8-2.93,1.55-5.86,2.45-8.78,1.76-5.67,5.77-9.15,11.45-10.8,3-.87,6-1.59,9-2.33a12.26,12.26,0,0,0,7.13-4.6c1.75-2.31,3.53-4.61,5.31-6.9,5.4-6.92,10.28-8.95,17.58-7.32.14,0,.26.11.41.14,10.43,2,9,2.64,19.34-4,1-.65,2-1.27,3.07-1.87,5.73-3.33,10.71-3.32,14.87,0a49.18,49.18,0,0,1,4.95,4.38c2.53,2.71,5.94,3.19,10.07,2.29,2.52-.54,5-.91,7.56-1.31,6.09-1,9.68,1.5,11.4,6.45.9,2.6,1.68,5.26,2.45,7.93a6.61,6.61,0,0,0,5.12,4.72c2.59.71,5.17,1.45,7.69,2.29,5.64,1.89,7.65,5.75,6.44,12.06a65.81,65.81,0,0,0-1.5,8.76,10.34,10.34,0,0,0,1.28,5.69c1.41,2.27,3.52,4,5.29,6,4.15,4.72,4.14,9.19,0,15.76-1.5,2.35-3,4.68-4.64,7a10.41,10.41,0,0,0-2,8.47c.53,2.45,1.09,4.9,1.48,7.41,1,6.62-1.13,11-7.54,15.68-2.38,1.71-4.74,3.46-7.12,5.16a12.11,12.11,0,0,0-4.95,7.34c-.73,3-1.56,6-2.55,9a15.78,15.78,0,0,1-11,10.62c-3,.89-6,1.62-9,2.35a13.24,13.24,0,0,0-7.93,5.14c-1.81,2.47-3.7,4.91-5.62,7.32-3.42,4.31-7.45,7.17-12.79,7.22-3.11-.59-6.26-1.09-9.32-1.8A12.29,12.29,0,0,0,194.81,182Z" style="fill:none"/><path d="M115.66,188.79a13.17,13.17,0,0,0-7.19-6.86c-2.61-1.13-5.18-2.29-7.84-3.33-7.44-2.92-10.28-8.81-9.4-17.21a59.12,59.12,0,0,0,.71-9.56,22,22,0,0,0-2-8.2c-1.6-3.22-4-6-6-8.94-3.77-5.59-3.5-12,.39-19.13,1.72-3.15,3.4-6.32,5.13-9.47a20.22,20.22,0,0,0,2.68-11.8c-.3-3.29-.49-6.61-.74-9.92-.53-7,2.4-13.23,8.55-18.65,2.86-2.51,5.71-5,8.65-7.46a27.3,27.3,0,0,0,8.45-12.65c1.1-3.2,2.33-6.41,3.71-9.57A24.56,24.56,0,0,1,135.09,22.6q5.59-2.13,11.23-4.09a25.15,25.15,0,0,0,10.53-7.09c2.14-2.36,4.37-4.66,6.41-7.1A33.93,33.93,0,0,1,167.59,0H155.75a54.71,54.71,0,0,1-22.49,13.89,65.52,65.52,0,0,0-7.4,3.13A22.35,22.35,0,0,0,114.6,28.1c-1.37,2.91-2.7,5.84-3.87,8.79-2.82,7.11-6.57,13.7-12.8,19.18-3.63,3.19-7.15,6.54-10.53,10s-5.56,7.53-5.7,12c-.07,2-.12,4.07-.11,6.08,0,6.35,1.06,12.6-1.57,19.26a156.69,156.69,0,0,1-6.84,14.82c-3.68,7-3.89,13.22-.36,18.74,1,1.62,2,3.32,3.09,4.9,3.77,5.41,6.21,11.43,5.66,18.89-.2,2.73-.19,5.43-.39,8.16-.56,7.6,2,13.1,8.62,16,.78.35,1.51.75,2.29,1.1,7.08,3.11,13.75,6.64,17,14H121c-.31-.49-.59-1-.86-1.52C118.55,195.31,117.11,192.05,115.66,188.79Z" style="fill:none"/><path d="M226.52,137.77c2.44-.32,4.89-.63,7.29-.76s3.46-1.07,3.65-3.34.44-4.27.67-6.41a10.72,10.72,0,0,1,5.73-8.58c2.07-1.18,4.19-2.25,6.28-3.39,3.33-1.82,3.59-2.35,2.39-5.28-.6-1.49-1.33-2.92-1.95-4.4-1.52-3.62-.64-7.23,2.56-10.82,1.49-1.67,3-3.35,4.5-5s1.66-3.1,0-4.17-3.07-2.14-4.61-3.2c-3.15-2.17-4-5.32-2.32-9.54.77-2,1.46-4,2.54-6.93.87-1.62-.57-2.31-2.6-2.53s-3.9-.38-5.86-.52c-3.58-.28-5.79-2-6.34-5.46-.31-2-.37-4.09-.58-6.12-.34-3.21-.92-3.52-4.36-2.37-1.95.66-3.91,1.34-5.87,2-3.91,1.29-7,.66-9-2.11-1.12-1.48-2.13-3.05-3.28-4.51-1.62-2.08-2.42-2.08-5,0-1.81,1.46-3.56,3-5.36,4.51-3.34,2.75-6.7,3.45-10,2.14-1.85-.73-3.66-1.55-5.53-2.25-2.25-.83-3-.49-4.46,1.93-1.15,1.94-2.21,3.93-3.29,5.9a11.3,11.3,0,0,1-9.35,6.37c-2.12.19-4.22.28-6.35.56-2.8.37-3.34,1-3.62,3.66-.13,1.29-.25,2.59-.36,3.88-.6,6.72-2.31,9.1-9,12.51-1.36.69-2.71,1.4-4.07,2.1-2,1-2.79,2.36-1.9,4.16.77,1.55,1.43,3.18,2.13,4.78,1.62,3.72.91,7.45-2.51,11.21-1.56,1.72-3,3.52-4.63,5.21s-1.35,2.83,0,3.78l4.62,3.18c3,2,4,4.94,2.56,9-.82,2.29-1.52,4.6-2.38,6.88-.73,2-.14,2.92,1.71,3.1s3.59.37,5.42.48c4.48.25,7.24,2.23,7.58,6.75.16,2.06.38,4.09.6,6.13.19,1.66,1,2.35,3,1.6s4.07-1.31,6.09-2.06c4.71-1.77,8.18-.94,10.51,2.49,1,1.43,2,2.79,3,4.2,1.1,1.58,2.5,1.51,4.32,0,2-1.71,4.23-3.28,6.22-5,3-2.64,5.95-3,8.89-2.1a63.32,63.32,0,0,1,6.57,2.54c1.62.72,2.79.1,3.75-1.56,1.3-2.25,2.55-4.52,3.85-6.78A10.79,10.79,0,0,1,226.52,137.77Z" style="fill:none"/><path d="M9.2,44.34A130.75,130.75,0,0,1,20.74,29.91,167.68,167.68,0,0,0,43.4,0H32.06A139.52,139.52,0,0,1,17,20C13.4,23.88,10.14,28,6.7,32A93.88,93.88,0,0,0,0,40.54V66.79c.39-2,.84-4,1.4-6A51.43,51.43,0,0,1,9.2,44.34Z" style="fill:none"/><path d="M25.74.55,26.12,0H0V32.33c1.06-1.34,2.14-2.68,3.3-4C11.12,19.31,18.75,10.09,25.74.55Z" style="fill:none"/><path d="M93.58,193.35c-2.59-1.14-5-2.53-7.57-3.74-7.59-3.62-10.87-10-10.35-19,.22-3.63.21-7.23.32-10.85a18.67,18.67,0,0,0-2.78-10.65c-2-3.18-3.88-6.38-5.8-9.58-3.82-6.35-3.55-13.53.31-21.46C69,115.54,70,113,71.46,110.49c4.4-7.65,5.25-15.13,4.66-22.65a60.67,60.67,0,0,1,.06-9.43c.62-7.93,5.58-14.21,11.91-19.9,1.73-1.56,3.38-3.24,5.19-4.7,7.42-6,10.74-13.71,13.89-21.59.75-1.89,1.67-3.75,2.57-5.61a30.49,30.49,0,0,1,16.32-15.15c4.09-1.72,8.2-3.39,12.31-5A35,35,0,0,0,148.65,0H122.4c-3,1.35-6,2.79-8.88,4.29a27.58,27.58,0,0,0-11.8,11.5c-1.83,3.37-3.65,6.77-5.13,10.22A71.3,71.3,0,0,1,78.73,51.37c-3.07,2.76-5.88,5.84-8.68,8.88-3.73,4.06-6.23,8.6-6.77,13.54a101.53,101.53,0,0,0-.71,12.48,56.08,56.08,0,0,1-5.83,26.47c-2.42,4.88-4.26,9.93-6.35,14.91l.22.08c-.19,1.61-.51,3.23-.56,4.81-.15,5.64,2.35,10,4.77,14.35,3.09,5.57,6.62,10.92,7.06,17.91a90.9,90.9,0,0,1,.28,12C61.4,188.07,65.84,195.5,74.82,200H102A20.38,20.38,0,0,0,93.58,193.35Z" style="fill:none"/><path d="M56.78,182.23c0-3.89-.16-7.76-.11-11.66.08-6.91-2.35-12.58-5.51-17.93-1.12-1.91-2.07-3.93-3.19-5.84-4.89-8.32-4.34-17.66.45-28a133.37,133.37,0,0,0,7.07-17.69c1.24-4.16,1.1-8.43,1.39-12.62.31-4.4.17-8.74.63-13.15.79-7.4,4.66-14,10.34-19.94,2.14-2.25,4.27-4.55,6.59-6.6A65.37,65.37,0,0,0,92,23.87c1.1-2.71,2.53-5.37,3.91-8A38.82,38.82,0,0,1,111.07,0H87.61a51.19,51.19,0,0,0-5.43,8.9c-.68,1.41-1.46,2.8-2.11,4.23A100.19,100.19,0,0,1,57.64,44.66C55.21,47,53,49.54,50.79,52.06c-5.16,5.84-8.72,12.21-9.58,19.25-.59,4.81-1,9.61-1.21,14.37-.39,8.24-1.52,16.44-5,24.78-2.84,6.8-5.37,13.65-8,20.48a27,27,0,0,0,.69,14.86,81.48,81.48,0,0,0,4,9.45c3.92,7.71,7.63,15.48,7.78,25,.06,3.58.45,7.08.49,10.66A34.72,34.72,0,0,0,41.19,200H64.12C59.2,195.72,56.81,189.77,56.78,182.23Z" style="fill:none"/><path d="M33.86,180.69c-.35-7-2.67-13.09-5.64-18.87-1.33-2.59-2.48-5.31-3.82-7.89-5.24-10-4.29-21.19.91-33.31a152.27,152.27,0,0,0,7.33-19.86C34,95.7,34,90.56,34.45,85.47c.45-4.57.54-9.11,1.18-13.69,1.18-8.55,5.47-16.3,11.88-23.33,3.92-4.3,7.85-8.61,12-12.74,7.28-7.29,11.59-15.89,15.94-24.51,1.43-2.81,2.94-5.6,4.48-8.38Q80.7,1.37,81.6,0H70.78c-1,1.64-1.87,3.29-2.71,5-5.73,11.38-12.57,22.14-22,31.6-2.49,2.5-4.71,5.26-7.15,7.81A49.72,49.72,0,0,0,24.58,77.78a185.34,185.34,0,0,1-1.94,19.45c-1.48,9.69-6.06,19.13-9.59,28.65-3.26,8.77-4.6,17.25-1.83,25.06A105.55,105.55,0,0,0,16,162.59c4.23,8.55,7.27,17.58,7.66,27.86.12,3.21.44,6.37.69,9.55H35.23a35.28,35.28,0,0,1-.52-4.47C34.45,190.58,34.11,185.65,33.86,180.69Z" style="fill:none"/><path d="M11.81,167.77c-1.58-3.25-2.93-6.65-4.45-9.94-4.83-10.5-3.66-22.08,1.12-34.44,2.95-7.6,6-15.24,8.07-22.9,1.51-5.61,1.62-11.3,2.12-16.93.71-8,1.14-16,4.4-24.12a57,57,0,0,1,10-15.71c2.35-2.74,4.67-5.53,7.23-8.08A118.21,118.21,0,0,0,63.44,3c.49-1,1-2,1.55-3H49.13C43.2,10.25,36.57,20.13,28,29c-2.63,2.72-5,5.72-7.5,8.53C10.46,48.64,5.3,60.75,4.32,73.91,3.8,80.82,3,87.8,1.94,94.77a78.38,78.38,0,0,1-1.94,9v80.75A57.21,57.21,0,0,1,2.22,195.2c.16,1.6.34,3.2.51,4.8h16c-.27-2.62-.56-5.23-.65-7.9A58.94,58.94,0,0,0,11.81,167.77Z" style="fill:none"/><path d="M237.09,188.34a38.42,38.42,0,0,1,18.58-12.5c3.06-.93,6.1-2.15,9.12-3.36a16.59,16.59,0,0,0,9.22-9.07,66.63,66.63,0,0,0,2.48-6.38c2.6-8.1,6.86-15.26,14.38-20.88a75.5,75.5,0,0,0,7.73-6.92c2.82-2.81,4.38-6.06,4.25-9.59a69.78,69.78,0,0,0-.46-8c-1.14-7.52.41-15,5.11-22.5,1.25-2,2.2-4.12,3.35-6.17,2.74-4.88,2.94-9.27.42-13.13-1.24-1.91-2.5-3.82-3.9-5.59a22,22,0,0,1-5-16.81q.56-5,.79-10c.21-4.29-1.3-7.55-4.95-9.34a60.48,60.48,0,0,0-7-3.12c-6.75-2.35-11.44-6.64-13.68-13.34-.29-.87-.8-1.64-1.05-2.52C275,4,272,1,267.43,0H259.9l-1.32.16A36,36,0,0,1,246.33,0H232.82a23.59,23.59,0,0,1,3.39,2.6c4.24,4.21,9.88,5.05,16.58,3.63a42.15,42.15,0,0,1,5.43-.67c6.53-.52,11,1.88,13.27,7.29q1.67,4,3.14,8a10.63,10.63,0,0,0,6.89,6.76c2.24.77,4.4,1.68,6.66,2.41,7.68,2.47,10.16,8.25,8.71,16.59-.36,2.07-.58,4.14-.87,6.21-.56,4,.16,7.41,2.55,10.14,1.4,1.61,2.57,3.42,4,5,5,5.66,4.72,12.36-.19,20.1-1.32,2.06-2.43,4.22-3.74,6.28a16.47,16.47,0,0,0-2.72,11.69c.46,2.94.69,6,1,8.93.68,6.3-2.25,11.65-7.83,16.27-2.66,2.2-5.33,4.41-8.08,6.5a20.69,20.69,0,0,0-7.22,11c-.93,3-1.89,6-3.08,8.95a20.49,20.49,0,0,1-13,12.06c-3.37,1.15-6.74,2.25-10.12,3.26a19.14,19.14,0,0,0-9.38,6.37c-2.26,2.7-4.5,5.42-6.85,8.05-4.51,5-9.71,7.95-15.92,7.56-3.5-.4-7-.75-10.49-1.23a15.75,15.75,0,0,0-10,2.07c-2.51,1.38-5,2.77-7.53,4.14h15.83a28.52,28.52,0,0,1,5.62,0h14.75a16.55,16.55,0,0,0,6.83-4.43C232.71,193.2,235,190.83,237.09,188.34Z" style="fill:none"/><path d="M397.13,0h-16c.24,2.37.49,4.74.56,7.15a63.79,63.79,0,0,0,6.76,26.41A121.8,121.8,0,0,1,394.25,48c3,8.77,1.18,18.3-2.48,28.05-2.6,6.93-5.66,13.84-7.57,20.8-1.65,6-2.06,12.11-2.86,18.16s-1.12,11.9-2.1,17.88c-1.44,8.77-6.14,16.68-12.48,24-3,3.51-6.06,7.06-9.36,10.35-9.37,9.34-15.84,20.08-21.48,31.3-.25.5-.52,1-.78,1.5h15.91c5.28-9.14,11.07-18,18.64-26,3.43-3.63,6.6-7.49,9.9-11.24,8-9,13.46-18.82,15-29.73.72-5.13,1.18-10.24,1.93-15.38,1-7,1.62-14,3.48-20.94a.29.29,0,0,1,0-.09V16.4a53.57,53.57,0,0,1-2.12-9.54C397.6,4.58,397.36,2.29,397.13,0Z" style="fill:none"/><path d="M320,186.92a100.26,100.26,0,0,1,21.48-30.34c3.1-3,5.92-6.28,8.72-9.54,4.92-5.73,7.9-12,8.68-18.76.49-4.2.68-8.37.92-12.53.41-6.84.71-13.69,3.24-20.66,1.94-5.33,3.92-10.68,6.28-15.93,5-11,5.55-21.1.73-30.16-.62-1.16-1.15-2.38-1.75-3.55-3.65-7.2-7.36-14.36-7.76-23.18-.18-4.07-.55-8.1-.59-12.2A35.08,35.08,0,0,0,358.52,0H335.16c5.37,4.41,8,10.65,8,18.68,0,2.77.18,5.51,0,8.3A36.19,36.19,0,0,0,349,48.4a79.3,79.3,0,0,1,4.42,8.49c3.39,7.4,2.24,15.53-1.68,24.11-2.2,4.79-4.34,9.61-6.32,14.45-2.43,5.9-2.38,11.63-2.48,17.37-.07,3.9-.27,7.84-.56,11.78-.55,7.71-4.57,14.45-10.43,20.6-2.2,2.32-4.38,4.67-6.76,6.79a64,64,0,0,0-17,24.07c-1.19,2.94-2.78,5.81-4.26,8.7A38.33,38.33,0,0,1,289.64,200h23c.67-1,1.31-1.93,1.9-3C316.45,193.7,318.43,190.36,320,186.92Z" style="fill:none"/><path d="M374,200h26V167.89q-2.13,2.73-4.43,5.42C388.12,182,380.08,190.41,374,200Z" style="fill:none"/><path d="M356.13,161.47c1.6-1.57,3-3.31,4.56-4.94,9.44-10,13.94-21,14.48-32.93.26-5.9.92-11.87,1.62-17.83,1.16-9.86,5.51-19.5,9.29-29.13,4.2-10.71,5.58-20.82,1.59-30.06-1.21-2.83-2.4-5.68-3.7-8.45-3.22-6.9-6.44-13.79-7.2-21.89-.47-5.11-1-10.23-1.18-15.41L375.53,0h-11a38.85,38.85,0,0,1,.79,6.84c.12,4,.48,8,.59,12,.23,8.24,3.25,15.11,6.68,21.83a106.64,106.64,0,0,1,4.69,10.51c3.31,8.63,1.6,18-2.39,27.69-2.45,6-5.23,12-6.9,18-1.52,5.47-1.93,11-2.48,16.51-.69,6.93-.47,13.74-2.56,20.83-2.05,6.92-6.16,13-11.25,18.58-2.71,3-5.42,6-8.34,8.85-8.3,8-13.95,17.24-18.63,27.05-1.6,3.35-3.45,6.64-5.33,9.9-.29.49-.6.95-.9,1.42h11c.55-1,1.09-2.09,1.61-3.15A128.54,128.54,0,0,1,356.13,161.47Z" style="fill:none"/><path d="M377,173.11A145.45,145.45,0,0,0,356.75,200h11.38a119.43,119.43,0,0,1,10.34-14.26c5.1-5.93,10.13-11.92,15.27-17.82a78.77,78.77,0,0,0,6.26-8.19V133.29a62.81,62.81,0,0,1-13.62,28.87C383.29,165.85,380.31,169.64,377,173.11Z" style="fill:none"/><path d="M297.8,185.26c2.08-3.8,4.15-7.63,5.84-11.53a69.24,69.24,0,0,1,17.21-24.28c2.87-2.61,5.53-5.46,8.21-8.28a28.16,28.16,0,0,0,8.19-19.8c.07-5.85.15-11.73.71-17.66.66-7,4.21-13.75,7.22-20.52,2.08-4.66,4.31-9.31,4.63-14.16.4-5.88-2-10.41-4.49-14.92-3.1-5.63-6.77-11-7.29-18a125.14,125.14,0,0,1-.34-13.59c.33-9.83-3-17.11-11.44-21.18C325.39.9,324.56.45,323.74,0H297.51a19.18,19.18,0,0,0,7.95,6.76c2.61,1.24,5.14,2.6,7.78,3.8,8.22,3.73,11.69,10.54,10.95,20.15-.2,2.66-.15,5.28-.33,7.93a23.2,23.2,0,0,0,4.11,15c1.77,2.63,3.42,5.36,4.95,8.15,3.28,6,3.06,12.7-.51,20-1.3,2.69-2.39,5.44-3.9,8.05a35.69,35.69,0,0,0-4.79,21.52c.24,3.07.14,6.25.07,9.4-.16,7.11-3.81,13.23-9.48,18.71-2.3,2.23-4.6,4.47-7.05,6.52A43.72,43.72,0,0,0,294.08,165c-1.05,2.88-2.44,5.73-3.77,8.56a30.38,30.38,0,0,1-16.12,15.34c-3.93,1.69-7.88,3.32-11.84,4.85A36.1,36.1,0,0,0,251.81,200h27c2.67-1.21,5.31-2.58,7.91-4A26.75,26.75,0,0,0,297.8,185.26Z" style="fill:none"/><path d="M378.47,185.74A119.43,119.43,0,0,0,368.13,200H374c6.12-9.59,14.16-18,21.61-26.69q2.3-2.69,4.43-5.42v-8.16a78.77,78.77,0,0,1-6.26,8.19C388.6,173.82,383.57,179.81,378.47,185.74Z" style="fill:#f7941d"/><path d="M17,20A139.52,139.52,0,0,0,32.06,0H26.12l-.38.55c-7,9.54-14.62,18.76-22.44,27.77C2.14,29.65,1.06,31,0,32.33v8.21A93.88,93.88,0,0,1,6.7,32C10.14,28,13.4,23.88,17,20Z" style="fill:#f7941d"/><path d="M396.5,117.64c-.75,5.14-1.21,10.25-1.93,15.38-1.52,10.91-7,20.69-15,29.73-3.3,3.75-6.47,7.61-9.9,11.24-7.57,8-13.36,16.87-18.64,26h5.7A145.45,145.45,0,0,1,377,173.11c3.35-3.47,6.33-7.26,9.42-11A62.81,62.81,0,0,0,400,133.29V96.61a.29.29,0,0,0,0,.09C398.12,103.65,397.52,110.66,396.5,117.64Z" style="fill:#f7941d"/><path d="M397.88,6.86A53.57,53.57,0,0,0,400,16.4V0h-2.87C397.36,2.29,397.6,4.58,397.88,6.86Z" style="fill:#f7941d"/><path d="M0,184.56V200H2.73c-.17-1.6-.35-3.2-.51-4.8A57.21,57.21,0,0,0,0,184.56Z" style="fill:#f7941d"/><path d="M4.32,73.91c1-13.16,6.14-25.27,16.14-36.36C23,34.74,25.33,31.74,28,29,36.57,20.13,43.2,10.25,49.13,0H43.4A167.68,167.68,0,0,1,20.74,29.91,130.75,130.75,0,0,0,9.2,44.34,51.43,51.43,0,0,0,1.4,60.82c-.56,2-1,4-1.4,6v37a78.38,78.38,0,0,0,1.94-9C3,87.8,3.8,80.82,4.32,73.91Z" style="fill:#f7941d"/><path d="M16,162.59a105.55,105.55,0,0,1-4.81-11.65c-2.77-7.81-1.43-16.29,1.83-25.06,3.53-9.52,8.11-19,9.59-28.65a185.34,185.34,0,0,0,1.94-19.45A49.72,49.72,0,0,1,38.92,44.37c2.44-2.55,4.66-5.31,7.15-7.81C55.5,27.1,62.34,16.34,68.07,5c.84-1.67,1.76-3.32,2.71-5H65c-.54,1-1.06,2-1.55,3A118.21,118.21,0,0,1,40.29,35.65c-2.56,2.55-4.88,5.34-7.23,8.08a57,57,0,0,0-10,15.71c-3.26,8.13-3.69,16.11-4.4,24.12-.5,5.63-.61,11.32-2.12,16.93-2.06,7.66-5.12,15.3-8.07,22.9-4.78,12.36-6,23.94-1.12,34.44,1.52,3.29,2.87,6.69,4.45,9.94a58.94,58.94,0,0,1,6.28,24.33c.09,2.67.38,5.28.65,7.9h5.64c-.25-3.18-.57-6.34-.69-9.55C23.3,180.17,20.26,171.14,16,162.59Z" style="fill:#f7941d"/><path d="M357.4,167.2c3.3-3.29,6.32-6.84,9.36-10.35,6.34-7.32,11-15.23,12.48-24,1-6,1.32-11.92,2.1-17.88s1.21-12.14,2.86-18.16c1.91-7,5-13.87,7.57-20.8,3.66-9.75,5.46-19.28,2.48-28.05a121.8,121.8,0,0,0-5.84-14.4,63.79,63.79,0,0,1-6.76-26.41c-.07-2.41-.32-4.78-.56-7.15h-5.56l.06.83c.22,5.18.71,10.3,1.18,15.41.76,8.1,4,15,7.2,21.89,1.3,2.77,2.49,5.62,3.7,8.45,4,9.24,2.61,19.35-1.59,30.06-3.78,9.63-8.13,19.27-9.29,29.13-.7,6-1.36,11.93-1.62,17.83-.54,12-5,23-14.48,32.93-1.54,1.63-3,3.37-4.56,4.94a128.54,128.54,0,0,0-25,35.38c-.52,1.06-1.06,2.11-1.61,3.15h5.63c.26-.5.53-1,.78-1.5C341.56,187.28,348,176.54,357.4,167.2Z" style="fill:#f7941d"/><path d="M39.45,180.25c-.15-9.52-3.86-17.29-7.78-25a81.48,81.48,0,0,1-4-9.45A27,27,0,0,1,27,130.94c2.66-6.83,5.19-13.68,8-20.48,3.49-8.34,4.62-16.54,5-24.78.22-4.76.62-9.56,1.21-14.37.86-7,4.42-13.41,9.58-19.25,2.22-2.52,4.42-5.09,6.85-7.4A100.19,100.19,0,0,0,80.07,13.13c.65-1.43,1.43-2.82,2.11-4.23A51.19,51.19,0,0,1,87.61,0h-6q-.9,1.37-1.71,2.82c-1.54,2.78-3,5.57-4.48,8.38-4.35,8.62-8.66,17.22-15.94,24.51-4.11,4.13-8,8.44-12,12.74-6.41,7-10.7,14.78-11.88,23.33-.64,4.58-.73,9.12-1.18,13.69C34,90.56,34,95.7,32.64,100.76a152.27,152.27,0,0,1-7.33,19.86c-5.2,12.12-6.15,23.27-.91,33.31,1.34,2.58,2.49,5.3,3.82,7.89,3,5.78,5.29,11.85,5.64,18.87.25,5,.59,9.89.85,14.84a35.28,35.28,0,0,0,.52,4.47h6a34.72,34.72,0,0,1-1.25-9.09C39.9,187.33,39.51,183.83,39.45,180.25Z" style="fill:#f7941d"/><path d="M324.76,188.68c4.68-9.81,10.33-19.07,18.63-27.05,2.92-2.81,5.63-5.84,8.34-8.85,5.09-5.63,9.2-11.66,11.25-18.58,2.09-7.09,1.87-13.9,2.56-20.83.55-5.48,1-11,2.48-16.51,1.67-6,4.45-12,6.9-18,4-9.7,5.7-19.06,2.39-27.69a106.64,106.64,0,0,0-4.69-10.51c-3.43-6.72-6.45-13.59-6.68-21.83-.11-4-.47-8-.59-12A38.85,38.85,0,0,0,364.56,0h-6A35.08,35.08,0,0,1,360,10.07c0,4.1.41,8.13.59,12.2.4,8.82,4.11,16,7.76,23.18.6,1.17,1.13,2.39,1.75,3.55,4.82,9.06,4.24,19.13-.73,30.16-2.36,5.25-4.34,10.6-6.28,15.93-2.53,7-2.83,13.82-3.24,20.66-.24,4.16-.43,8.33-.92,12.53-.78,6.73-3.76,13-8.68,18.76-2.8,3.26-5.62,6.55-8.72,9.54A100.26,100.26,0,0,0,320,186.92c-1.59,3.44-3.57,6.78-5.49,10.12-.59,1-1.23,2-1.9,3h5.9c.3-.47.61-.93.9-1.42C321.31,195.32,323.16,192,324.76,188.68Z" style="fill:#f7941d"/><path d="M303.91,184.76c1.48-2.89,3.07-5.76,4.26-8.7a64,64,0,0,1,17-24.07c2.38-2.12,4.56-4.47,6.76-6.79,5.86-6.15,9.88-12.89,10.43-20.6.29-3.94.49-7.88.56-11.78.1-5.74.05-11.47,2.48-17.37,2-4.84,4.12-9.66,6.32-14.45,3.92-8.58,5.07-16.71,1.68-24.11A79.3,79.3,0,0,0,349,48.4,36.19,36.19,0,0,1,343.17,27c.14-2.79,0-5.53,0-8.3,0-8-2.6-14.27-8-18.68H323.74c.82.45,1.65.9,2.51,1.31,8.43,4.07,11.77,11.35,11.44,21.18A125.14,125.14,0,0,0,338,36.08c.52,7,4.19,12.4,7.29,18,2.49,4.51,4.89,9,4.49,14.92-.32,4.85-2.55,9.5-4.63,14.16-3,6.77-6.56,13.53-7.22,20.52-.56,5.93-.64,11.81-.71,17.66a28.16,28.16,0,0,1-8.19,19.8c-2.68,2.82-5.34,5.67-8.21,8.28a69.24,69.24,0,0,0-17.21,24.28c-1.69,3.9-3.76,7.73-5.84,11.53A26.75,26.75,0,0,1,286.68,196c-2.6,1.38-5.24,2.75-7.91,4h10.87A38.33,38.33,0,0,0,303.91,184.76Z" style="fill:#f7941d"/><path d="M62.16,176.84a90.9,90.9,0,0,0-.28-12c-.44-7-4-12.34-7.06-17.91-2.42-4.37-4.92-8.71-4.77-14.35.05-1.58.37-3.2.56-4.81l-.22-.08c2.09-5,3.93-10,6.35-14.91a56.08,56.08,0,0,0,5.83-26.47,101.53,101.53,0,0,1,.71-12.48c.54-4.94,3-9.48,6.77-13.54,2.8-3,5.61-6.12,8.68-8.88A71.3,71.3,0,0,0,96.59,26c1.48-3.45,3.3-6.85,5.13-10.22a27.58,27.58,0,0,1,11.8-11.5c2.93-1.5,5.89-2.94,8.88-4.29H111.07A38.82,38.82,0,0,0,95.89,15.84c-1.38,2.66-2.81,5.32-3.91,8A65.37,65.37,0,0,1,74.44,48.78c-2.32,2-4.45,4.35-6.59,6.6-5.68,5.95-9.55,12.54-10.34,19.94-.46,4.41-.32,8.75-.63,13.15-.29,4.19-.15,8.46-1.39,12.62a133.37,133.37,0,0,1-7.07,17.69c-4.79,10.36-5.34,19.7-.45,28,1.12,1.91,2.07,3.93,3.19,5.84,3.16,5.35,5.59,11,5.51,17.93-.05,3.9.1,7.77.11,11.66,0,7.54,2.42,13.49,7.34,17.77h10.7C65.84,195.5,61.4,188.07,62.16,176.84Z" style="fill:#f7941d"/><path d="M92.09,186c-.78-.35-1.51-.75-2.29-1.1-6.57-2.93-9.18-8.43-8.62-16,.2-2.73.19-5.43.39-8.16.55-7.46-1.89-13.48-5.66-18.89-1.1-1.58-2-3.28-3.09-4.9-3.53-5.52-3.32-11.7.36-18.74A156.69,156.69,0,0,0,80,103.39c2.63-6.66,1.62-12.91,1.57-19.26,0-2,0-4,.11-6.08.14-4.45,2.26-8.46,5.7-12s6.9-6.81,10.53-10c6.23-5.48,10-12.07,12.8-19.18,1.17-3,2.5-5.88,3.87-8.79A22.35,22.35,0,0,1,125.86,17a65.52,65.52,0,0,1,7.4-3.13A54.71,54.71,0,0,0,155.75,0h-7.1a35,35,0,0,1-10.28,6.42c-4.11,1.65-8.22,3.32-12.31,5a30.49,30.49,0,0,0-16.32,15.15c-.9,1.86-1.82,3.72-2.57,5.61C104,40.1,100.7,47.86,93.28,53.81c-1.81,1.46-3.46,3.14-5.19,4.7-6.33,5.69-11.29,12-11.91,19.9a60.67,60.67,0,0,0-.06,9.43c.59,7.52-.26,15-4.66,22.65C70,113,69,115.54,67.71,118.07c-3.86,7.93-4.13,15.11-.31,21.46,1.92,3.2,3.84,6.4,5.8,9.58A18.67,18.67,0,0,1,76,159.76c-.11,3.62-.1,7.22-.32,10.85-.52,9,2.76,15.38,10.35,19,2.55,1.21,5,2.6,7.57,3.74A20.38,20.38,0,0,1,102,200h7C105.84,192.67,99.17,189.14,92.09,186Z" style="fill:#f7941d"/><path d="M274.19,188.89a30.38,30.38,0,0,0,16.12-15.34c1.33-2.83,2.72-5.68,3.77-8.56a43.72,43.72,0,0,1,13.18-18.91c2.45-2.05,4.75-4.29,7.05-6.52,5.67-5.48,9.32-11.6,9.48-18.71.07-3.15.17-6.33-.07-9.4a35.69,35.69,0,0,1,4.79-21.52c1.51-2.61,2.6-5.36,3.9-8.05,3.57-7.35,3.79-14.06.51-20-1.53-2.79-3.18-5.52-4.95-8.15a23.2,23.2,0,0,1-4.11-15c.18-2.65.13-5.27.33-7.93.74-9.61-2.73-16.42-10.95-20.15-2.64-1.2-5.17-2.56-7.78-3.8A19.18,19.18,0,0,1,297.51,0h-7.06a27.38,27.38,0,0,0,15.12,13.42c1.2.45,2.25,1.15,3.44,1.63,7.52,3,10.46,9,9.66,17.55-.26,2.74-.22,5.43-.39,8.16-.46,7.48,2.49,13.24,6.17,18.66,1.15,1.71,2.16,3.54,3.22,5.32,2.95,5,2.4,10.63-.62,16.76-2.27,4.61-4.55,9.22-6.63,13.88-2.83,6.33-2.36,12.34-2.19,18.39.08,3.19,0,6.43-.19,9.69-.26,3.88-2.23,7.44-5.21,10.57a91.38,91.38,0,0,1-8,7.74,52.25,52.25,0,0,0-16.31,23.41c-.41,1.14-.94,2.27-1.37,3.41a27.3,27.3,0,0,1-17.7,17c-1.33.45-2.64,1.07-4,1.51A52.16,52.16,0,0,0,244.67,200h7.14a36.1,36.1,0,0,1,10.54-6.26C266.31,192.21,270.26,190.58,274.19,188.89Z" style="fill:#f7941d"/><path d="M258.58.16,259.9,0H246.33A36,36,0,0,0,258.58.16Z" style="fill:#f7941d"/><path d="M203.24,200h5.62A28.52,28.52,0,0,0,203.24,200Z" style="fill:#f7941d"/><path d="M144.86,200h5.33A35.11,35.11,0,0,0,144.86,200Z" style="fill:#f7941d"/><path d="M125.87,196.27a59.28,59.28,0,0,1-3.75-7.93,20.12,20.12,0,0,0-12.86-12.51c-1.49-.52-2.85-1.26-4.36-1.74-7.07-2.28-9.13-7.68-8-15.26a74,74,0,0,0,.72-9.57c.09-4.84-1.94-8.62-4.48-12.12-1.65-2.29-3.28-4.6-4.8-7-2.66-4.19-1.38-9,1.29-13.9,3.27-6.08,7.53-12,7.93-18.61A65.63,65.63,0,0,0,97.06,85c-.89-6.72,1.67-12.36,7.89-17.28,2-1.55,3.8-3.28,5.77-4.83a36.31,36.31,0,0,0,12-17.5c1-2.9,2.16-5.79,3.41-8.64a15.6,15.6,0,0,1,8.49-8.45c3.62-1.51,7.29-2.89,11-4.09A36.35,36.35,0,0,0,162.07,13c2-2.29,4-4.5,6.05-6.73C171.06,3,174.27.82,177.35,0h-9.76a33.93,33.93,0,0,0-4.33,4.32c-2,2.44-4.27,4.74-6.41,7.1a25.15,25.15,0,0,1-10.53,7.09q-5.62,2-11.23,4.09A24.56,24.56,0,0,0,120.78,36c-1.38,3.16-2.61,6.37-3.71,9.57a27.3,27.3,0,0,1-8.45,12.65c-2.94,2.43-5.79,5-8.65,7.46-6.15,5.42-9.08,11.62-8.55,18.65.25,3.31.44,6.63.74,9.92a20.22,20.22,0,0,1-2.68,11.8c-1.73,3.15-3.41,6.32-5.13,9.47-3.89,7.13-4.16,13.54-.39,19.13,2,3,4.37,5.72,6,8.94a22,22,0,0,1,2,8.2,59.12,59.12,0,0,1-.71,9.56c-.88,8.4,2,14.29,9.4,17.21,2.66,1,5.23,2.2,7.84,3.33a13.17,13.17,0,0,1,7.19,6.86c1.45,3.26,2.89,6.52,4.47,9.69.27.53.55,1,.86,1.52h9A7.79,7.79,0,0,1,125.87,196.27Z" style="fill:#f7941d"/><path d="M200.11,0H185.67c2.49.14,4.59.26,6.64.48A24.38,24.38,0,0,0,200.11,0Z" style="fill:#f7941d"/><path d="M235.12,197.75q3.8-4.06,7.49-8.22a26.31,26.31,0,0,1,11.32-7.68c3.52-1.22,7-2.46,10.53-3.8,6.68-2.54,11.72-6.89,14.54-13.5a75.61,75.61,0,0,0,3.06-7.73,32,32,0,0,1,11.86-16.89c2.2-1.66,4.24-3.56,6.28-5.43,4.73-4.35,8.09-9.27,8.12-15.09,0-4.64-.34-9.2-.63-13.76A19.38,19.38,0,0,1,310.15,95c1.82-3.38,3.55-6.79,5.4-10.15,3.79-6.88,4.1-13.09.62-18.56-1.41-2.21-2.92-4.35-4.48-6.45-2.52-3.37-4.31-7.08-3.86-11.9.23-2.52.37-5,.71-7.55,1.2-9.12-1.56-15.63-9.8-18.67-2.28-.84-4.42-1.93-6.67-2.81a14.22,14.22,0,0,1-8.38-8.2c-1.16-2.86-2.45-5.65-3.81-8.39A16.51,16.51,0,0,0,278.51,0H267.43C272,1,275,4,276.51,9.11c.25.88.76,1.65,1.05,2.52,2.24,6.7,6.93,11,13.68,13.34a60.48,60.48,0,0,1,7,3.12c3.65,1.79,5.16,5.05,4.95,9.34q-.24,5-.79,10a22,22,0,0,0,5,16.81c1.4,1.77,2.66,3.68,3.9,5.59,2.52,3.86,2.32,8.25-.42,13.13-1.15,2-2.1,4.17-3.35,6.17-4.7,7.53-6.25,15-5.11,22.5a69.78,69.78,0,0,1,.46,8c.13,3.53-1.43,6.78-4.25,9.59a75.5,75.5,0,0,1-7.73,6.92c-7.52,5.62-11.78,12.78-14.38,20.88a66.63,66.63,0,0,1-2.48,6.38,16.59,16.59,0,0,1-9.22,9.07c-3,1.21-6.06,2.43-9.12,3.36a38.42,38.42,0,0,0-18.58,12.5c-2.1,2.49-4.38,4.86-6.65,7.23a16.55,16.55,0,0,1-6.83,4.43h9.21C233.6,199.3,234.37,198.56,235.12,197.75Z" style="fill:#f7941d"/><path d="M204.91,193.79c3.47.48,7,.83,10.49,1.23,6.21.39,11.41-2.51,15.92-7.56,2.35-2.63,4.59-5.35,6.85-8.05a19.14,19.14,0,0,1,9.38-6.37c3.38-1,6.75-2.11,10.12-3.26a20.49,20.49,0,0,0,13-12.06c1.19-2.95,2.15-6,3.08-8.95a20.69,20.69,0,0,1,7.22-11c2.75-2.09,5.42-4.3,8.08-6.5,5.58-4.62,8.51-10,7.83-16.27-.32-3-.55-6-1-8.93a16.47,16.47,0,0,1,2.72-11.69c1.31-2.06,2.42-4.22,3.74-6.28,4.91-7.74,5.16-14.44.19-20.1-1.4-1.6-2.57-3.41-4-5-2.39-2.73-3.11-6.14-2.55-10.14.29-2.07.51-4.14.87-6.21,1.45-8.34-1-14.12-8.71-16.59-2.26-.73-4.42-1.64-6.66-2.41a10.63,10.63,0,0,1-6.89-6.76q-1.47-4.08-3.14-8c-2.27-5.41-6.74-7.81-13.27-7.29a42.15,42.15,0,0,0-5.43.67c-6.7,1.42-12.34.58-16.58-3.63A23.59,23.59,0,0,0,232.82,0h-19.4c-3.08,1.71-6.12,3.56-9.28,5a19.87,19.87,0,0,1-7.42,1.8,60.58,60.58,0,0,1-9.85-1c-7-1-13.18,1.35-18.54,7.58-2.3,2.68-4.64,5.32-6.87,8a19.38,19.38,0,0,1-9.68,6.34c-3.06.93-6.12,1.87-9.17,2.91-6.39,2.15-11.11,6.12-13.51,12.5a66.43,66.43,0,0,0-2.33,6.64,25.06,25.06,0,0,1-10.33,15,72.43,72.43,0,0,0-7.22,5.91c-4.6,4.15-6.68,9-6.3,14.24.25,3.45.71,6.85,1.15,10.24a15.53,15.53,0,0,1-2.33,10.16c-1.84,3.11-3.61,6.25-5.41,9.37-3.78,6.54-3.37,12.09.29,16.88A86.61,86.61,0,0,1,102.2,139a11,11,0,0,1,1.68,5.6,86.74,86.74,0,0,1-1.06,10.74c-.93,7,1.16,12,7.37,14.5,2.78,1.1,5.58,2.17,8.42,3.17a10.11,10.11,0,0,1,6.48,6.33c1,2.71,2.07,5.37,3.16,8,2.13,5.22,6.11,8,12.57,7.54,2.58-.2,5.16-.36,7.76-.8,5.53-.91,10.33-.4,14,3a34.84,34.84,0,0,0,3.77,2.93h21.06c2.52-1.37,5-2.76,7.53-4.14A15.75,15.75,0,0,1,204.91,193.79Zm-22.06,3.05c-3.85,2-7.33,2.07-10.3.07a31.53,31.53,0,0,1-4.7-3.41c-5.32-5.27-12.5-6.1-20.8-4.52a35.91,35.91,0,0,1-5.41.58c-3.36.11-6.06-.88-7.39-3.74a42.61,42.61,0,0,1-2.66-6.39c-1.88-6.75-6.28-10.94-13.13-12.81-1-.26-1.93-.59-2.87-.94-7.34-2.72-8.09-4.82-7-13.5.28-2.15.65-4.3.88-6.44a16.27,16.27,0,0,0-3.8-12.57c-1.75-2.12-3.41-4.32-5-6.55-2.15-3-1.94-6.42.34-10.26,1.72-2.88,3.36-5.8,5.09-8.69a22.41,22.41,0,0,0,3.39-15.11c-.41-2.8-.66-5.66-1-8.48-.51-3.85,1-7.28,4.42-10.26a68.08,68.08,0,0,1,6-4.9c7.6-5.16,11.51-12.06,13.54-20a40.78,40.78,0,0,1,1.74-5.05A13.11,13.11,0,0,1,142.6,36c3.21-1.06,6.42-2.15,9.64-3.11A28,28,0,0,0,166,23.57c2.19-2.64,4.39-5.28,6.67-7.85,2.9-3.27,6.26-5.13,10.28-4.82,3.27.39,6.57.68,9.8,1.19,4.87.76,9.71-.43,14.59-3.11,3.43-1.88,6.84-3.82,10.31-5.58s6.62-1.7,9.26,0a61.43,61.43,0,0,1,6.71,4.87c4.6,3.94,10.49,4.64,17.24,3.53a76.4,76.4,0,0,1,8.2-.75c3-.18,5.24,1,6.4,3.43a64.5,64.5,0,0,1,3.29,8A15.94,15.94,0,0,0,280,33.33c2.08.61,4,1.5,6.05,2.19,4.77,1.62,6.29,5.28,5.47,10.49-.41,2.61-.6,5.2-1,7.81a16.35,16.35,0,0,0,3.77,13.67c1.51,1.79,2.94,3.64,4.38,5.48,2.73,3.46,2.53,7.49-.32,12.07-1.34,2.14-2.5,4.36-3.86,6.49-3.85,6-5.11,12-4,17.94a73.06,73.06,0,0,1,.88,7.62,10.7,10.7,0,0,1-4.06,9.25c-2.68,2.32-5.41,4.61-8.24,6.72a29.85,29.85,0,0,0-11,16.44c-.64,2.23-1.46,4.44-2.23,6.66a13.42,13.42,0,0,1-9,8.59c-2.82.93-5.64,1.89-8.47,2.68a29,29,0,0,0-15.16,10.31c-1.76,2.21-3.64,4.34-5.46,6.51-3.54,4.24-7.66,5.82-12.36,5.17-3.18-.44-6.41-.74-9.62-1.08-4.79-.51-9.48,1-14.14,3.69Q187.25,194.53,182.85,196.84Z" style="fill:#f7941d"/><path d="M214.38,181.67c5.34,0,9.37-2.91,12.79-7.22,1.92-2.41,3.81-4.85,5.62-7.32a13.24,13.24,0,0,1,7.93-5.14c3-.73,6-1.46,9-2.35a15.78,15.78,0,0,0,11-10.62c1-3,1.82-6,2.55-9a12.11,12.11,0,0,1,4.95-7.34c2.38-1.7,4.74-3.45,7.12-5.16,6.41-4.64,8.57-9.06,7.54-15.68-.39-2.51-.95-5-1.48-7.41a10.41,10.41,0,0,1,2-8.47c1.6-2.3,3.14-4.63,4.64-7,4.18-6.57,4.19-11,0-15.76-1.77-2-3.88-3.77-5.29-6a10.34,10.34,0,0,1-1.28-5.69,65.81,65.81,0,0,1,1.5-8.76c1.21-6.31-.8-10.17-6.44-12.06-2.52-.84-5.1-1.58-7.69-2.29a6.61,6.61,0,0,1-5.12-4.72c-.77-2.67-1.55-5.33-2.45-7.93-1.72-4.95-5.31-7.43-11.4-6.45-2.52.4-5,.77-7.56,1.31-4.13.9-7.54.42-10.07-2.29a49.18,49.18,0,0,0-4.95-4.38c-4.16-3.36-9.14-3.37-14.87,0-1,.6-2.06,1.22-3.07,1.87-10.3,6.59-8.91,5.91-19.34,4-.15,0-.27-.11-.41-.14-7.3-1.63-12.18.4-17.58,7.32-1.78,2.29-3.56,4.59-5.31,6.9a12.26,12.26,0,0,1-7.13,4.6c-3,.74-6,1.46-9,2.33C145,42.35,141,45.83,139.21,51.5c-.9,2.92-1.65,5.85-2.45,8.78a12.86,12.86,0,0,1-5.09,7.56c-2.47,1.73-4.92,3.5-7.35,5.28-6.13,4.5-8.4,9.27-7.35,15.57.38,2.29.84,4.55,1.4,6.76.81,3.22,0,6.38-2.2,9.58-1.58,2.31-3.19,4.62-4.66,7-3.8,6.14-3.78,10.55,0,15,1.79,2.09,3.87,3.94,5.45,6.19a7.71,7.71,0,0,1,1.4,4.74c-.27,3.63-1.12,7.35-1.7,11-.82,5.3,1.32,9.12,6,10.65,2.59.84,5.21,1.63,7.86,2.35,2.81.76,4.82,2.26,5.61,5.09s1.52,5.5,2.52,8.12c2,5.24,5.87,7.1,12.18,6,2.52-.43,5-.93,7.57-1.41,3.41-.65,6.31-.26,8.5,1.9,1.67,1.63,3.45,3.16,5.26,4.66,4.54,3.76,9.35,3.77,15.61,0,2.35-1.41,4.71-2.82,7-4.38a12.29,12.29,0,0,1,10.25-2.13C208.12,180.58,211.27,181.08,214.38,181.67Zm-19.69-5.26c-2.66,1.53-5.22,3.3-7.85,4.91-5.3,3.24-7.41,3.22-11.27,0a16.42,16.42,0,0,1-2.12-2c-4.37-5.28-10.58-6.36-18.3-4.24a39.07,39.07,0,0,1-5.42.84c-2.94.37-4.77-.83-5.6-3.27a62,62,0,0,1-2-6.51c-1.22-5.38-4.6-8.57-10.07-9.78a47.55,47.55,0,0,1-5.65-1.58c-4.11-1.46-5-3.26-4.06-8,.58-3,1.16-6,1.63-9,.67-4.19-.86-7.33-3.33-10-1.62-1.74-3.26-3.46-4.85-5.23-2.17-2.4-2-5.27.25-8.55,1.54-2.24,3-4.53,4.54-6.76,3.3-4.78,4.37-9.5,3.22-14.26-.57-2.37-.93-4.82-1.43-7.21-.6-2.9.54-5.44,3.3-7.57,2-1.58,4.11-3.17,6.27-4.56A23.18,23.18,0,0,0,142.6,59c.6-2.61,1.41-5.22,2.24-7.83A7.4,7.4,0,0,1,150,46.29c2.9-.89,5.82-1.7,8.73-2.35a22,22,0,0,0,13.43-9c1.69-2.34,3.48-4.64,5.28-6.93,2.46-3.12,5.39-4,8.63-3.38,2.17.44,4.38.77,6.5,1.3,5.11,1.27,10.16.1,15.29-3.34,2.56-1.72,5.21-3.31,7.88-4.82,2.44-1.38,4.73-1.33,6.54,0a33.35,33.35,0,0,1,5,4.28c4,4.34,9.43,5.17,16,3.65a63.37,63.37,0,0,1,6.85-1.19c2.67-.32,4.55.69,5.39,3a44.31,44.31,0,0,1,2,6.26c1.21,5.94,4.91,9.32,10.86,10.63a50.52,50.52,0,0,1,6.41,1.93c2.32.84,3.29,2.67,2.88,5.32s-.81,5.38-1.43,8.08C275,65,276,69.4,279.33,72.81c1.79,1.8,3.47,3.71,5.12,5.65s1.48,4.37-.12,7c-1.5,2.44-3,4.87-4.7,7.23-3.54,5-4.76,9.9-3.57,14.91.55,2.29,1,4.64,1.43,7,.57,2.92-.5,5.53-3.33,7.71-2,1.53-4,3.07-6.07,4.41-6,3.86-9.65,8.9-10.86,15.36a55.12,55.12,0,0,1-2.09,7.15,7.33,7.33,0,0,1-4.82,4.86,76.33,76.33,0,0,1-8.25,2.3,23.07,23.07,0,0,0-15,10.06c-1.54,2.23-3.26,4.38-5,6.5a7.78,7.78,0,0,1-6.77,3.19c-3.26-.6-6.54-1.16-9.78-1.81A15.36,15.36,0,0,0,194.69,176.41Z" style="fill:#f7941d"/><path d="M223.28,164.9a69.51,69.51,0,0,0,4.13-6.1,10.79,10.79,0,0,1,8.71-5.64c.7-.07,1.42-.28,2.13-.4,10.5-1.75,13.5-4.33,15.19-14.43,1-5.77,3.51-9.64,9.21-12.94,9.54-5.52,11.29-9.44,8.21-18-1.82-5.06-.8-9.29,3.36-14.31,6.94-8.36,6.91-12.56,0-18-3.92-3.11-5.93-6.62-3.31-11.81.45-1.94.8-3.26,1.05-4.57,1.1-5.79-.54-8.67-5.89-10.12-2.1-.57-4.27-1-6.46-1.37-2.78-.48-4.51-1.88-5-4.68a68.88,68.88,0,0,0-1.54-6.93C251.84,31,249,29.29,243.84,30a46.24,46.24,0,0,0-7.55,1.67c-3.69,1.14-6.49.71-8.43-1.94a29,29,0,0,0-2.68-2.86c-5.13-5.26-9.55-5.22-17,.28-9.2,6.78-8,5.77-16.2,3.52-7.73-2.12-11.58-.52-16.92,7.12a49.46,49.46,0,0,1-3.94,5.61,12.18,12.18,0,0,1-4.64,3.22c-2.95,1-6,1.24-9,1.94-4.91,1.15-8.58,3.9-10.05,8.9a59.1,59.1,0,0,0-1.62,7.38,11.14,11.14,0,0,1-5.89,8.5,71.49,71.49,0,0,0-6.89,4.51c-4.33,3.17-6,6.79-5.18,11.24a74.72,74.72,0,0,0,2,7.65,7.42,7.42,0,0,1-1.46,6.84c-1.58,2.13-3.23,4.21-4.76,6.36-4.07,5.69-4.13,9.67-.17,13.69a40.08,40.08,0,0,0,4,3.57c2.63,2,3.17,4.86,2,8.48-.51,1.53-1,3.08-1.37,4.62-1.79,6.86.21,10.51,6.57,11.94,1.64.37,3.31.69,5,1,3.08.48,5.18,1.89,5.64,5.09.3,2.09.78,4.11,1.27,6.13,1.28,5.23,4.77,7.21,10.68,6,2.44-.5,4.88-1.15,7.33-1.75,2.87-.71,5.21-.39,6.92,1.61a51.48,51.48,0,0,0,4.92,5c3.51,3.11,7.31,3.15,12.32.09a70.06,70.06,0,0,0,6.56-4.58c3-2.37,5.91-3,8.94-2a52.51,52.51,0,0,0,6.1,1.62C215.49,171.54,219.61,169.8,223.28,164.9Zm-29.51,1c-2.39,1.7-4.78,3.39-7.21,5s-4.3,1.59-5.89,0-2.95-2.88-4.28-4.45c-3-3.5-7.12-4.43-12.37-3-2,.53-3.94,1-5.91,1.48-4,1-5.19.36-6.15-3.14a24.6,24.6,0,0,1-.87-4.23c-.62-6.22-4.37-9.25-10.53-10a36.76,36.76,0,0,1-4.94-1.07c-2.21-.57-2.94-2.17-2.4-4.55.38-1.7.78-3.39,1.3-5.67,2.67-6.25.67-10.84-4-14.58-6-4.81-5.95-5.41.08-12.78,4.78-5.84,6.43-11.38,4-17.11a24.2,24.2,0,0,1-.88-3.08c-1.1-4-.46-5.44,3.8-8.24q2.26-1.48,4.59-2.84c5.11-3,8.12-7,8.9-12.4.3-2.07.82-4.16,1.32-6.24.77-3.25,1.95-4.47,5.27-5.26,2.52-.59,5.05-1,7.57-1.45,4.87-.82,8.52-3.6,11.33-7.86C178,42.28,179.38,40.05,181,38c2.07-2.72,3.41-3.2,6.27-2.51,2.2.53,4.38,1.1,6.53,1.73,4.06,1.19,8.11.44,12.23-2.5,2.25-1.6,4.47-3.25,6.77-4.74,3.11-2,4.42-2.05,6.69-.11a30.78,30.78,0,0,1,3.69,3.88c3.12,3.8,7.42,4.91,13.08,3.27,2.28-.67,4.57-1.17,6.86-1.69s3.77.18,4.38,2.12a16.5,16.5,0,0,1,1,3.94c.46,7.43,4.69,10.95,12,11.88,7,.88,7.35,2,5.16,9.36-.55,1.84-.92,3.7-1.28,5.54a8.8,8.8,0,0,0,2.77,8.6c1.65,1.56,3.46,3,5,4.62,2.18,2.32,2.11,3.43-.15,6.63-1.38,1.94-2.83,3.84-4.29,5.74-3.39,4.41-4.46,8.78-3,13.18.56,1.68,1,3.4,1.48,5.12,1,3.79.5,5-3.47,7.69-1.93,1.3-3.9,2.52-5.88,3.72a16.91,16.91,0,0,0-8.14,11.83,48,48,0,0,1-1.86,7.82,6.41,6.41,0,0,1-3.25,3.07,48.91,48.91,0,0,1-8.25,1.88,16.87,16.87,0,0,0-12,8.06c-1.22,1.92-2.48,3.84-3.83,5.69-2.51,3.47-4.09,4.1-7.6,3.19-2-.53-4.07-1.09-6.1-1.66C201.79,162.17,197.79,163,193.77,165.89Z" style="fill:#f7941d"/><path d="M219.13,152.35a51.18,51.18,0,0,0,3-5.45c1.28-2.66,3-4.16,5.93-4a41,41,0,0,0,4.22-.36c6.67-.42,10.29-3.92,10.83-10.43a33.76,33.76,0,0,1,.76-6,6.07,6.07,0,0,1,2.22-3,58.41,58.41,0,0,1,5.8-3.2c6.38-3.43,8.17-7.32,5.88-12.77-.66-1.54-1.31-3.09-2-4.61s-.39-3,1-4.5c1.68-1.85,3.39-3.68,5-5.6,3.75-4.55,3.79-8.18.11-11.16-1.49-1.21-3.16-2.24-4.77-3.33a3.1,3.1,0,0,1-1.2-4.16c.85-2.21,1.67-4.42,2.4-6.65,1.67-5-.05-8.19-4.85-8.88-1.84-.26-3.74-.39-5.64-.49-2.55-.14-4.05-1.15-4.05-3.88a31.9,31.9,0,0,0-.6-5.9c-.86-4.52-3.81-6-8.85-4.57-2.35.68-4.7,1.51-7,2.38-1.92.72-3.19.3-4.12-1a56.11,56.11,0,0,0-3.68-5c-3.05-3.42-6.75-3.36-11.32.14-1.85,1.42-3.62,3-5.36,4.52s-3.55,2.11-5.43,1.23a45,45,0,0,0-5.74-2.31Q185.16,41.3,180.88,48c-1.41,2.2-2.61,4.5-3.84,6.77a4.65,4.65,0,0,1-3.9,2.76c-2.5.21-5,.44-7.53.77A9.26,9.26,0,0,0,157.2,66a68,68,0,0,0-.92,7.57,4.7,4.7,0,0,1-2.94,4.23c-1.9.92-3.78,1.94-5.65,3-6.06,3.3-7.85,7.22-5.69,12.45q.93,2.23,1.95,4.41c.84,1.79.46,3.52-1.24,5.33-1.53,1.63-3,3.3-4.46,5-3.9,4.67-4,8.24-.22,11.32,1.49,1.22,3.16,2.24,4.77,3.33s2,2.48,1,4.63-1.63,4.42-2.43,6.63c-1.2,5,0,7.35,4.62,8.3a38.14,38.14,0,0,0,6.48.73c2.47.07,3.43,1.33,3.61,3.58a45.17,45.17,0,0,0,1,7.35c.77,3.11,3.28,4.41,6.85,3.6a68.42,68.42,0,0,0,8-2.47c2.33-.83,3.95-.59,5.11,1.18a33.63,33.63,0,0,0,4,5.23c2.66,2.69,6,2.6,9.88-.2a53.5,53.5,0,0,0,6-5c1.85-1.79,3.54-2.09,5.37-1.36s3.66,1.56,5.54,2.23C212.33,158.64,216.12,157.08,219.13,152.35Zm-8.33-.42a63.32,63.32,0,0,0-6.57-2.54c-2.94-.93-5.91-.54-8.89,2.1-2,1.76-4.17,3.33-6.22,5-1.82,1.52-3.22,1.59-4.32,0-1-1.41-2-2.77-3-4.2-2.33-3.43-5.8-4.26-10.51-2.49-2,.75-4.08,1.29-6.09,2.06s-2.82.06-3-1.6c-.22-2-.44-4.07-.6-6.13-.34-4.52-3.1-6.5-7.58-6.75-1.83-.11-3.62-.31-5.42-.48s-2.44-1.15-1.71-3.1c.86-2.28,1.56-4.59,2.38-6.88,1.48-4.09.41-7-2.56-9l-4.62-3.18c-1.38-1-1.6-2.11,0-3.78s3.07-3.49,4.63-5.21c3.42-3.76,4.13-7.49,2.51-11.21-.7-1.6-1.36-3.23-2.13-4.78-.89-1.8-.14-3.11,1.9-4.16,1.36-.7,2.71-1.41,4.07-2.1,6.69-3.41,8.4-5.79,9-12.51.11-1.29.23-2.59.36-3.88.28-2.69.82-3.29,3.62-3.66,2.13-.28,4.23-.37,6.35-.56a11.3,11.3,0,0,0,9.35-6.37c1.08-2,2.14-4,3.29-5.9,1.43-2.42,2.21-2.76,4.46-1.93,1.87.7,3.68,1.52,5.53,2.25,3.32,1.31,6.68.61,10-2.14,1.8-1.49,3.55-3,5.36-4.51,2.55-2.06,3.35-2.06,5,0,1.15,1.46,2.16,3,3.28,4.51,2.07,2.77,5.13,3.4,9,2.11,2-.65,3.92-1.33,5.87-2,3.44-1.15,4-.84,4.36,2.37.21,2,.27,4.12.58,6.12.55,3.42,2.76,5.18,6.34,5.46,2,.14,3.92.31,5.86.52s3.47.91,2.6,2.53c-1.08,3-1.77,5-2.54,6.93-1.63,4.22-.83,7.37,2.32,9.54,1.54,1.06,3,2.17,4.61,3.2s1.6,2.41,0,4.17-3,3.32-4.5,5c-3.2,3.59-4.08,7.2-2.56,10.82.62,1.48,1.35,2.91,1.95,4.4,1.2,2.93.94,3.46-2.39,5.28-2.09,1.14-4.21,2.21-6.28,3.39a10.72,10.72,0,0,0-5.73,8.58c-.23,2.14-.49,4.28-.67,6.41s-1.38,3.21-3.65,3.34-4.85.44-7.29.76a10.79,10.79,0,0,0-8.12,5.82c-1.3,2.26-2.55,4.53-3.85,6.78C213.59,152,212.42,152.65,210.8,151.93Z" style="fill:#f7941d"/></svg>