<svg id="Layer_1" data-name="Layer 1" xmlns="http://www.w3.org/2000/svg" viewBox="0 0 153.95 154.1"><title>favicon</title><path d="M75.68,96.65a2,2,0,0,0,2.78,0l28-28a2,2,0,0,0,0-2.78l-8.24-8.24a2,2,0,0,0-2.78,0L77.07,76,58.73,57.66a2,2,0,0,0-2.78,0L47.71,65.9a2,2,0,0,0,0,2.78Z" style="fill:#231f20"/><path d="M151.36,72.71,80.44,2.55A6,6,0,0,0,72,2.6L2.59,72.76a6,6,0,0,0,0,8.4L72,151.32a6,6,0,0,0,8.44,0L151.36,81.2a6,6,0,0,0,0-8.49Zm-6.76,5.7L77.7,144.59a2,2,0,0,1-2.89,0L9.34,78.4a2,2,0,0,1,0-2.88L74.81,9.33a2.05,2.05,0,0,1,1.44-.61h0a2,2,0,0,1,1.44.6L144.6,75.5a2.06,2.06,0,0,1,.61,1.46A2,2,0,0,1,144.6,78.41Z" style="fill:#231f20"/><path d="M98.26,92.85a2,2,0,0,0-2.78,0l-18.9,18.41L58.8,93a2,2,0,0,0-1.38-.6,2.1,2.1,0,0,0-1.39.56l-8.36,8.13a2,2,0,0,0,0,2.78l27.29,28a2,2,0,0,0,1.38.6h0a2,2,0,0,0,1.37-.56L106.36,104a2,2,0,0,0,.59-1.39,1.94,1.94,0,0,0-.55-1.39Z" style="fill:#231f20"/><path d="M73.31,59.59a6.76,6.76,0,0,0,2.91.66,6.85,6.85,0,0,0,2.9-.65,30.61,30.61,0,0,0,14.2-14.19,6.81,6.81,0,0,0,0-5.77,30.61,30.61,0,0,0-14.2-14.19,6.7,6.7,0,0,0-5.77,0A30.58,30.58,0,0,0,59.15,39.64h0a6.82,6.82,0,0,0,0,5.76A30.61,30.61,0,0,0,73.31,59.59ZM68.38,41.2h0a14.09,14.09,0,0,1,6.52-6.51,3.08,3.08,0,0,1,2.65,0,14.13,14.13,0,0,1,6.53,6.52,3.15,3.15,0,0,1,0,2.65,14,14,0,0,1-6.52,6.52,3.14,3.14,0,0,1-1.33.3,3,3,0,0,1-1.34-.31,14,14,0,0,1-6.51-6.51A3.15,3.15,0,0,1,68.38,41.2Z" style="fill:#231f20"/><path d="M50.21,86.62a3.15,3.15,0,0,0,0-2.65,14.13,14.13,0,0,0-6.53-6.52,3.11,3.11,0,0,0-2.65,0A14.14,14.14,0,0,0,34.51,84h0a3.15,3.15,0,0,0,0,2.65A14,14,0,0,0,41,93.13a3,3,0,0,0,1.34.31,3.14,3.14,0,0,0,1.33-.3A14,14,0,0,0,50.21,86.62Z" style="fill:#231f20"/><path d="M114.37,77.45a3.13,3.13,0,0,0-2.66,0A14.05,14.05,0,0,0,105.2,84h0a3.08,3.08,0,0,0,0,2.65,13.92,13.92,0,0,0,6.5,6.51,3,3,0,0,0,1.34.31,3.08,3.08,0,0,0,1.33-.3,14,14,0,0,0,6.52-6.52,3.08,3.08,0,0,0,0-2.65A14,14,0,0,0,114.37,77.45Z" style="fill:#231f20"/></svg>